<?xml version="1.0" standalone="no"?><!DOCTYPE svg PUBLIC "-//W3C//DTD SVG 1.1//EN" "http://www.w3.org/Graphics/SVG/1.1/DTD/svg11.dtd"><svg t="1497578837933" class="icon" style="" viewBox="0 0 1024 1024" version="1.1" xmlns="http://www.w3.org/2000/svg" p-id="1019" xmlns:xlink="http://www.w3.org/1999/xlink" width="200" height="200"><defs><style type="text/css"></style></defs><path d="M949.4 501.2c-24 192.4-193.8 372.1-425.4 372.1-89.3 0-192.8-35.5-208.9-89.8-13.7-46.5-19-112.7-85.1-97.6-82.9 18.9-155.7-8.9-157.9-83.2C64.5 337.6 277.3 180.9 512 154c228.9-26.2 467.6 104 437.4 347.2zM508.8 196.8C304.5 219.6 115 377.8 115 586.4c0 75.2 41.6 69.5 114.5 60.3 48.6-6.1 109.2 16 119.1 96.6 6.1 49.2 72.4 87.2 172.4 87.2 183.8 0 354.5-139.6 381.3-316.5 35.6-234.7-190.6-339.8-393.5-317.2z m194.8 225.5c-24.9 0-45.1-20.2-45.1-45.1 0-24.9 20.2-45.1 45.1-45.1 24.9 0 45.1 20.2 45.1 45.1 0.1 24.9-20.1 45.1-45.1 45.1zM557.1 738c-43.6 0-78.9-35.3-78.9-78.9 0-43.6 35.3-78.9 78.9-78.9 43.6 0 78.9 35.3 78.9 78.9 0 43.6-35.3 78.9-78.9 78.9z m-11.3-360.8c-24.9 0-45.1-20.2-45.1-45.1 0-24.9 20.2-45.1 45.1-45.1 24.9 0 45.1 20.2 45.1 45.1 0 24.9-20.2 45.1-45.1 45.1z m-157.9 45.1c-24.9 0-45.1-20.2-45.1-45.1 0-24.9 20.2-45.1 45.1-45.1 24.9 0 45.1 20.2 45.1 45.1 0 24.9-20.2 45.1-45.1 45.1zM275.2 535c-24.9 0-45.1-20.2-45.1-45.1 0-24.9 20.2-45.1 45.1-45.1s45.1 20.2 45.1 45.1c0 24.9-20.2 45.1-45.1 45.1z" p-id="1020"></path></svg>