<?xml version="1.0" standalone="no"?><!DOCTYPE svg PUBLIC "-//W3C//DTD SVG 1.1//EN" "http://www.w3.org/Graphics/SVG/1.1/DTD/svg11.dtd"><svg t="1497233706008" class="icon" style="" viewBox="0 0 1024 1024" version="1.1" xmlns="http://www.w3.org/2000/svg" p-id="6780" xmlns:xlink="http://www.w3.org/1999/xlink" width="200" height="200"><defs><style type="text/css"></style></defs><path d="M558.915519 451.052906c-3.590781-5.984295-8.617261-10.892071-14.960737-14.722306-6.223748-3.830235-14.003945-5.744841-23.219841-5.744841-11.610432 0-21.902846 3.351328-30.640857 10.053983-8.736988 6.702656-16.158005 15.20019-22.262026 25.613354-6.104021 10.293437-10.652618 21.783119-13.884218 34.231639-3.111874 12.447497-4.78805 24.536836-4.78805 36.026518 0 5.744841 0.598634 11.848862 1.794879 18.432815 1.197268 6.463202 3.590781 12.447497 7.30129 18.073634 3.590781 5.505387 8.378831 10.053983 14.243399 13.644765 5.864568 3.590781 13.644765 5.385661 23.339568 5.385661 13.165858 0 24.297382-3.231601 33.513278-9.694803 9.215896-6.463202 16.756639-14.602579 22.621207-24.536836 5.864568-9.81453 10.053983-20.586874 12.806677-32.076556 2.632967-11.490705 3.949962-22.1423 3.949962-31.718399 0-7.66047-0.718361-15.20019-2.15406-22.740934C565.139268 463.859583 562.626028 457.156928 558.915519 451.052906z" p-id="6781"></path><path d="M511.99693 47.862078c-256.322853 0-464.113363 207.79051-464.113363 464.113363s207.79051 464.113363 464.113363 464.113363 464.113363-207.79051 464.113363-464.113363S768.319783 47.862078 511.99693 47.862078zM768.133541 551.473013c-8.019651 22.1423-18.671245 40.575114-32.076556 55.535851-13.405311 14.96176-28.605501 26.092261-45.841048 33.513278-17.235546 7.421017-35.308157 11.131525-54.219879 11.131525-19.389606 0-34.95-4.548596-46.679136-13.644765-11.610432-9.096169-17.475-20.706601-17.475-34.590819l-3.590781 0c-7.30129 11.490705-18.432815 22.50148-33.513278 32.794917-15.080463 10.293437-33.513278 15.559371-55.416124 15.559371-33.034371 0-58.529021-10.772344-76.481905-32.435737s-26.930349-49.671283-26.930349-84.381829c0-20.227694 3.351328-40.096207 10.17371-59.844993 6.822382-19.748786 16.517185-37.223786 29.084409-52.66343 12.567223-15.319917 27.64871-27.768437 45.12371-37.104059 17.475-9.335622 36.864606-14.003945 58.289568-14.003945 18.431791 0 33.992185 3.830235 46.679136 11.490705 12.567223 7.66047 20.826328 17.115819 24.77629 28.127617l0.718361 0 5.864568-28.844955 64.872496 0-28.606525 136.326898c-0.957815 6.702656-2.273786 14.123672-3.949962 22.381753-1.676176 8.139378-2.51324 15.798824-2.51324 23.100114 0 8.139378 1.556449 14.960737 4.78805 20.586874 3.111874 5.505387 9.335622 8.259104 18.551518 8.259104 18.910699 0 34.590819-10.053983 47.038316-30.281677 12.32777-20.227694 18.551518-47.27777 18.551518-81.389682 0-28.844955-4.907777-54.459333-14.602579-76.721359-9.694803-22.381753-23.219841-41.054021-40.455387-56.254212-17.235546-15.081487-37.82242-26.571169-61.521169-34.231639-23.818475-7.66047-49.79101-11.490705-77.918627-11.490705-30.640857 0-58.647725 5.385661-84.142375 16.158005-25.493627 10.772344-47.27777 25.733081-65.230654 44.644803-17.953907 19.030425-31.956829 41.293475-41.892109 67.026556-10.053983 25.613354-15.080463 53.381791-15.080463 83.184561 0 31.718399 5.265934 60.3239 15.679098 85.817528 10.413164 25.493627 25.134447 47.158043 44.046169 65.231677 18.910699 18.073634 41.532929 31.837102 67.744917 41.413202 26.211988 9.575076 55.177694 14.363126 86.655615 14.363126 39.377846 0 73.250304-6.223748 101.617375-18.790972 28.367071-12.447497 54.459333-29.80277 78.277808-51.945069l40.215934 43.327808c-28.605501 30.281677-62.597687 52.423977-101.976556 66.308195-39.377846 14.003945-80.910774 20.946055-124.597763 20.946055-41.771359 0-79.833233-6.582929-114.064872-19.868513-34.231639-13.165858-63.555501-31.598672-87.733157-55.177694-24.297382-23.579021-43.088354-51.826366-56.493665-84.74101-13.405311-32.914644-19.98824-68.821435-19.98824-107.721397 0-38.421055 7.30129-73.968665 21.902846-106.643855 14.602579-32.67519 34.471093-61.042261 59.725266-85.10019s54.698786-42.8489 88.571245-56.613392c33.633005-13.525038 69.77925-20.34742 108.080577-20.34742 33.034371 0 65.11195 4.78805 96.110965 14.363126 31.119765 9.575076 58.647725 24.057929 82.705654 43.208081 24.057929 19.269879 43.208081 43.208081 57.571207 72.054059 14.363126 28.844955 21.544689 62.717414 21.544689 101.617375C780.103154 503.95579 776.153192 529.450441 768.133541 551.473013z" p-id="6782"></path></svg>