<?xml version="1.0" encoding="UTF-8"?>
<svg width="15px" height="16px" viewBox="0 0 15 16" version="1.1" xmlns="http://www.w3.org/2000/svg" xmlns:xlink="http://www.w3.org/1999/xlink">
    <!-- Generator: Sketch 44.1 (41455) - http://www.bohemiancoding.com/sketch -->
    <title>UED_logo</title>
    <desc>Created with Sketch.</desc>
    <defs></defs>
    <g id="Page-1" stroke="none" stroke-width="1" fill="none" fill-rule="evenodd">
        <g id="通栏内页" transform="translate(-630.000000, -967.000000)" fill-rule="nonzero" fill="#666666">
            <g id="版权信息" transform="translate(0.000000, 924.000000)">
                <g id="EDC" transform="translate(630.000000, 43.000000)">
                    <g id="UED_logo">
                        <path d="M9.19056278,7.09789556 L11.5573492,8.46352317 C11.9196229,8.6725538 12.3827565,8.54832581 12.5917871,8.18605217 C12.6581908,8.07096713 12.6931476,7.94043712 12.6931476,7.80756872 L12.6931476,5.87858063 C12.6931476,5.14048688 12.2992766,4.45849119 11.6599708,4.08961393 L9.45193388,2.81558426 C9.26091687,2.70536811 9.01671913,2.77087014 8.90650298,2.96188715 C8.87149013,3.02256836 8.85305834,3.09139327 8.85305834,3.16145115 L8.85305834,6.51349977 C8.85305834,6.7546104 8.98172288,6.97739566 9.19056278,7.09789556 Z M11.5046742,7.27599368 L9.85562663,6.3235315 L9.85562663,4.20554072 L11.1606192,4.95928253 C11.4885686,5.14870056 11.6905793,5.49866408 11.6905793,5.87738553 L11.6905793,7.16868295 C11.6905793,7.23712442 11.6350966,7.29260722 11.5666551,7.29260722 C11.5448945,7.29260722 11.5235175,7.28687727 11.5046742,7.27599368 Z" id="Shape"></path>
                        <path d="M1.00472254,10.8512707 L1.00472254,4.47831426 C1.00472254,4.2471208 1.12805515,4.03348693 1.32826727,3.91787758 L5.34520245,1.59836158 C5.65491142,1.41952501 5.84569515,1.08905388 5.84569515,0.731419745 L5.84569515,0.463497274 C5.84569515,0.364637352 5.76555334,0.284495552 5.66669343,0.284495552 C5.63527584,0.284495552 5.60441164,0.292764559 5.57720223,0.308471649 L0.828405354,3.04979565 C0.31712433,3.34494134 0.00215425334,3.8904462 0.00215425334,4.4808014 L0.00215425334,11.0531258 C0.00215425334,11.6434741 0.317117018,12.1889736 0.8283886,12.4841219 L6.52259723,15.7712898 C7.03380103,16.0663989 7.66360559,16.0663927 8.17480362,15.7712737 L13.1286124,12.9113969 C13.7872028,12.531187 14.0128748,11.689073 13.6326648,11.0304826 C13.511824,10.8211651 13.3380155,10.6473427 13.1287076,10.5264852 L8.17269951,7.6648113 C7.97248285,7.54920318 7.84914673,7.33556676 7.84914673,7.10436998 L7.84914673,1.37539558 C7.84914673,1.17007113 8.01559508,1.00362277 8.22091953,1.00362277 C8.28618717,1.00362277 8.35030466,1.02080515 8.40682605,1.05344251 L13.3674576,3.91787763 C13.5676699,4.03348694 13.6910026,4.24712091 13.6910026,4.47831448 L13.6910026,9.11467413 C13.6910026,9.4730127 13.8820627,9.80416483 14.1922868,9.98351791 L14.4249765,10.1180452 C14.5105625,10.1675259 14.6200555,10.1382568 14.6695362,10.0526709 C14.685281,10.0254374 14.6935709,9.99453556 14.6935709,9.96307824 L14.6935709,4.48069203 C14.6935709,3.89039544 14.3786629,3.34493545 13.8674619,3.0497683 L8.91202689,0.188502934 C8.25346242,-0.191751813 7.41133307,0.0338627869 7.03107832,0.69242725 C6.91021059,0.901758472 6.84657844,1.13921936 6.84657844,1.38093937 L6.84657844,7.47798704 C6.84657844,7.83561022 7.03739346,8.16606001 7.34712834,8.34482978 L12.6330023,11.3970704 C12.8108121,11.4997437 12.8717222,11.7271202 12.7690489,11.90493 C12.7364234,11.9614309 12.6895033,12.008351 12.6330023,12.0409766 L7.67227346,14.905468 C7.47204865,15.0210845 7.22535262,15.0210998 7.02511336,14.9055083 L1.5051642,11.7190235 L1.25478684,11.5740265 C1.1000149,11.484396 1.00472254,11.3190926 1.00472254,11.1402408 L1.00472254,10.8512707 Z" id="Shape"></path>
                        <path d="M2.00578571,5.64001519 L2.00578571,8.7929325 C2.00578571,8.98304774 2.15990455,9.13716658 2.35001979,9.13716658 C2.41045294,9.13716658 2.46982114,9.1212569 2.52215584,9.09103697 L5.34538254,7.46080613 C5.65509141,7.28196929 5.845875,6.95149807 5.845875,6.59386389 L5.845875,6.32591972 C5.845875,6.2270598 5.7657332,6.146918 5.66687328,6.146918 C5.63545939,6.146918 5.60459866,6.15518507 5.57739149,6.17088867 L3.008354,7.65370177 L3.008354,7.03748039 L5.3445989,5.68903197 C5.65478372,5.50999756 5.845875,5.17906477 5.845875,4.82091963 L5.845875,4.55213297 C5.845875,4.45327305 5.7657332,4.37313125 5.66687328,4.37313125 C5.63545939,4.37313125 5.60459866,4.38139832 5.57739149,4.39710192 L3.008354,5.87991502 L3.008354,5.26537859 L5.3445989,3.91693019 C5.65478372,3.73789577 5.845875,3.40696299 5.845875,3.04881783 L5.845875,2.77998025 C5.845875,2.68112033 5.7657332,2.60097853 5.66687328,2.60097853 C5.63546802,2.60097853 5.60461548,2.60924106 5.57741356,2.62493647 L2.8323272,4.20884183 C2.32088255,4.50394364 2.00578571,5.0495402 2.00578571,5.64001519 Z" id="Shape"></path>
                        <path d="M6.52675966,9.97820669 L4.52535124,11.1338906 C4.20265968,11.3202241 4.09211963,11.7328705 4.27845315,12.0555621 C4.33769994,12.1581654 4.42292074,12.2433582 4.52554357,12.3025712 L6.85265848,13.6453085 C7.16240083,13.8240288 7.54395152,13.8239667 7.85363573,13.6451456 L8.08564425,13.511177 C8.1712565,13.4617418 8.20058388,13.3522644 8.15114878,13.2666521 C8.13544235,13.2394516 8.11285516,13.2168627 8.08565577,13.2011543 L5.70404709,11.8257057 C5.64477962,11.791477 5.62448168,11.7156834 5.65871038,11.6564159 C5.66958304,11.6375898 5.68521702,11.6219552 5.70404274,11.6110817 L7.2912161,10.6943571 C7.32956638,10.6722066 7.37682235,10.6722056 7.41517352,10.6943546 L9.68797798,12.0069655 C9.99805572,12.1860444 10.3800929,12.1861977 10.6903142,12.0073676 L10.9228637,11.8733122 C11.0085119,11.8239395 11.037919,11.7144833 10.9885463,11.6288351 C10.9728412,11.6015911 10.9502362,11.5789652 10.9230067,11.5632351 L8.17953778,9.97836377 C7.66821965,9.68298101 7.03813392,9.68292113 6.52675966,9.97820669 Z" id="Shape"></path>
                    </g>
                </g>
            </g>
        </g>
    </g>
</svg>