<?xml version="1.0" standalone="no"?><!DOCTYPE svg PUBLIC "-//W3C//DTD SVG 1.1//EN" "http://www.w3.org/Graphics/SVG/1.1/DTD/svg11.dtd"><svg t="1497233282487" class="icon" style="" viewBox="0 0 1024 1024" version="1.1" xmlns="http://www.w3.org/2000/svg" p-id="6126" xmlns:xlink="http://www.w3.org/1999/xlink" width="200" height="200"><defs><style type="text/css"></style></defs><path d="M788.032295 659.45433c-8.534723-8.53642-22.362203-8.53642-30.899997 0-8.513233 8.534374-8.513233 22.384823 0.022514 30.898731 66.046888 66.066695 102.412587 153.85818 102.412587 247.238964 0 12.05864 9.773998 21.852704 21.852576 21.852704 12.080625 0 21.852576-9.794064 21.852576-21.852704C903.273575 832.53941 862.34272 733.757616 788.032295 659.45433zM509.925162 63.86454c-144.604207 0-262.231934 117.64542-262.231934 262.242679 0 103.134939 59.849492 192.531991 146.638623 235.329726-60.739805 18.576077-116.378219 51.855018-162.53736 98.038874-74.308378 74.28282-115.218766 173.064614-115.218766 278.117229 0 12.05864 9.773998 21.852704 21.853599 21.852704 12.077555 0 21.851553-9.794064 21.851553-21.852704 0-93.381807 36.364676-181.173293 102.412587-247.238964 63.655324-63.671135 147.574987-99.724259 237.226423-102.234429 3.320765 0.125867 6.652786 0.209778 10.004251 0.209778 144.60216 0 262.230911-117.623931 262.230911-262.22119S654.527322 63.86454 509.925162 63.86454zM513.452643 544.580023c-1.16457-0.192382-2.351654-0.317225-3.570462-0.317225-3.317695 0.001023-6.629249 0.042979-9.93364 0.124843-115.874732-5.235235-208.549138-101.141538-208.549138-218.281445 0-120.504538 98.037774-218.516806 218.526782-218.516806 120.489009 0 218.525759 98.012268 218.525759 218.516806C728.451944 445.411419 632.320668 542.686906 513.452643 544.580023z" p-id="6127"></path></svg>