<svg>
  <symbol id="arrow-right" viewBox="0 0 1024 1024">
    <path d="M288.86749 12.482601C272.260723-4.160867 245.369563-4.160867 228.720647 12.482601 212.15603 29.126068 212.15603 56.438425 228.720647 73.081892L704.289552 511.786622 228.720647 950.918109C212.15603 967.561574 212.15603 994.447175 228.720647 1011.517401 245.369563 1028.160866 272.260723 1028.160866 288.86749 1011.517401L794.952385 544.646802C803.803707 535.684935 807.597131 523.735776 807.007043 511.786622 807.597131 500.264224 803.803707 488.315065 794.952385 479.353198L288.86749 12.482601Z"  ></path>
  </symbol>
  <symbol id="arrow-left" viewBox="0 0 1024 1024"><path d="M735.133 1011.517c16.607 16.642 43.498 16.643 60.147 0 16.565-16.643 16.565-43.956 0-60.599l-475.569-438.705 475.57-439.131c16.565-16.643 16.565-43.529 0-60.599-16.649-16.643-43.54-16.643-60.147 0l-506.085 466.871c-8.852 8.962-12.645 20.911-12.055 32.86-0.59 11.522 3.203 23.472 12.055 32.433l506.085 466.871z" >
    </path>
  </symbol>
</svg>