<svg aria-hidden="true" style="position: absolute; width: 0px; height: 0px; overflow: hidden;"><symbol id="home" viewBox="0 0 1024 1024"><path d="M979.774943 516.757351c0.271188-9.781784-4.690009-20.431332-13.949272-29.474288L546.846062 77.860299c-19.271711-18.844184-50.552425-18.844184-69.823113 0L58.041294 487.284085c-10.503656 10.260691-15.994947 21.626553-14.21125 32.055067-0.120755 0.895393-0.203646 1.801019-0.203646 2.728134 0 11.489682 9.529427 20.806885 21.292826 20.806885l110.524778 0c-2.78965 6.102998-4.062696 13.175067-4.062696 20.722974l0 353.805048c0 22.981411 19.063971 41.611723 42.584628 41.611723l596.197075 0c23.520657 0 42.584628-18.630313 42.584628-41.611723L852.747637 563.597145c0.287561-8.266267-0.705088-15.118326-2.858214-20.722974L959.208695 542.874171c11.762375 0 21.292826-9.318226 21.292826-20.806885C980.501521 520.229428 980.233404 518.456039 979.774943 516.757351zM810.161985 875.785354c0 22.986527-19.063971 41.61684-42.584628 41.61684L256.550562 917.402193c-23.520657 0-42.584628-18.630313-42.584628-41.61684L213.965934 521.985422c-0.001023 0-0.00307 0-0.004093 0-0.046051-11.450796-9.553988-20.72502-21.287709-20.72502l-85.058735 0 369.407553-360.983541c19.271711-18.837021 50.552425-18.837021 69.823113 0.007163l369.406529 360.975355-84.796757 0c-11.734745 0-21.242682 9.274224-21.287709 20.72502-0.001023 0-0.00307 0-0.004093 0L810.164032 875.785354z"></path></symbol><symbol id="check" viewBox="0 0 1025 1024"><path d="M950.781553 127.488785 328.070978 750.117016 73.151353 495.169943 0 568.452435 328.070978 896.511215 1024 200.658437Z"></path></symbol><symbol id="success" viewBox="0 0 1024 1024"><path d="M511.996387 9.862132c-277.328216 0-502.134255 224.813265-502.134255 502.137868 0 277.328216 224.80604 502.137868 502.134255 502.137868 277.320991 0 502.137868-224.809652 502.137868-502.137868C1014.137868 234.675397 789.320991 9.862132 511.996387 9.862132L511.996387 9.862132zM824.889692 388.748635l-351.388132 338.834686c-4.670966 4.663741-9.952445 8.337656-15.587949 11.028971-22.065166 15.761349-52.915939 13.75641-72.730516-6.061779l-150.897848-150.897848c-22.065166-22.065166-22.065166-57.832555 0-79.883271 22.054329-22.065166 57.821717-22.065166 79.886884 0l113.291695 113.28447 317.531758-306.192112c22.061554-22.061554 57.832555-22.061554 79.883271 0C846.954858 330.919692 846.954858 366.687081 824.889692 388.748635L824.889692 388.748635zM824.889692 388.748635"></path></symbol><symbol id="question" viewBox="0 0 1024 1024"><path d="M512 0C229.218 0 0 229.218 0 512s229.218 512 512 512 512-229.218 512-512S794.782 0 512 0zM512 944c-238.594 0-432-193.406-432-432S273.406 80 512 80s432 193.406 432 432S750.594 944 512 944z"></path><path d="M480 704l64 0 0 64-64 0 0-64Z"></path><path d="M635.468 300.296c-12.968-13.25-29.376-23.844-49.532-32.062-20.406-8.204-44.344-12.234-72.562-12.234-23.938 0-45.75 4.032-65.562 12.234-19.876 8.218-37 19.546-51.376 34.25-14.25 14.578-25.344 29.016-33 49.546C355.812 372.562 352 384 352 416l65.312 0c0-32 8.468-56.218 25.876-77.032 17.188-20.906 40.532-29.64 70.188-29.64 28.876 0 50.468 7.828 64.344 21.876 13.75 14.046 20.782 34.172 20.782 59.594 0 19.766-6.5 37.516-19.468 52.984-12.75 15.5-26.718 30.594-41.688 44.876-15.188 14.282-27.344 29.532-39.906 45.282S480 568.032 480 588.938L480 640l64 0 0-27.5c0-16.406 2.406-30.624 8.812-43.032 6.188-12.438 13.906-23.718 23.688-33.782 9.468-10.188 19.624-20 30.938-29.656 11-9.532 21.562-19.718 31.062-30.344 9.688-10.688 17.75-22.688 23.876-35.938 6.438-13.25 9.656-28.812 9.656-46.954 0-15.75-2.844-31.782-8.782-48.078C657.438 328.296 648.062 313.532 635.468 300.296z"></path></symbol><symbol id="caution" viewBox="0 0 1024 1024"><path d="M512 0C229.2352 0 0 229.2352 0 512c0 282.7648 229.2352 512 512 512s512-229.2352 512-512C1024 229.2352 794.7648 0 512 0zM512 934.4C278.72 934.4 89.6 745.28 89.6 512 89.6 278.72 278.72 89.6 512 89.6s422.4 189.12 422.4 422.4C934.4 745.28 745.28 934.4 512 934.4z"></path><path d="M512 729.6m-64 0a5 5 0 1 0 128 0 5 5 0 1 0-128 0Z"></path><path d="M469.3376 567.8592C471.8976 594.4448 488.8192 614.4 512 614.4c23.1808 0 40.1024-21.3504 42.6624-46.5408l20.4288-264.832C575.68 299.6096 576 292.1344 576 288.576 576 254.272 547.3408 230.4 512 230.4s-64 23.872-64 58.176c0 3.5584 0.3072 11.0336 0.896 14.4384L469.3376 567.8592z"></path></symbol><symbol id="question2" viewBox="0 0 1024 1024"><path d="M511.872072 0.95946c-280.866013 0-508.577925 228.991192-508.577925 511.52027 0 282.465113 227.711912 511.52027 508.577925 511.52027s508.641889-229.055156 508.641889-511.52027C1020.449997 229.950653 792.738085 0.95946 511.872072 0.95946zM561.508152 791.938535c0 18.101818-15.735149 27.696421-52.578425 27.696421L480.913486 819.634955c-36.843276 0-52.642389-9.530639-52.642389-27.696421l0-79.571241c0-18.165782 15.799113-27.696421 52.642389-27.696421l28.016241 0c36.843276 0 52.578425 9.466675 52.578425 27.696421L561.508152 791.938535zM551.913549 602.477107C546.668499 620.706852 534.387407 625.887938 505.411706 625.887938L485.327004 625.887938c-30.638766 0-42.919858-6.908114-42.919858-25.13786 0-108.930726 135.859579-178.907365 135.859579-232.573178C578.202761 337.921919 558.054095 319.820101 513.343244 319.820101 462.491848 319.820101 427.439565 346.557062 415.222437 346.557062c-24.626148 0-55.264913-52.770317-55.264913-70.872134 0-51.043288 96.457743-70.104566 164.83528-70.104566 117.373977 0 190.228996 58.782935 190.228996 153.897433C715.0218 491.819352 567.712662 519.515772 551.913549 602.477107z"></path></symbol><symbol id="info" viewBox="0 0 1024 1024"><path d="M512 0C229.307733 0 0 229.239467 0 512 0 794.760533 229.307733 1024 512 1024 794.692267 1024 1024 794.760533 1024 512 1024 229.239467 794.692267 0 512 0ZM448.1024 448.034133C448.1024 412.672 476.706133 384 512 384 547.362133 384 576.034133 412.672 576.034133 448.034133L576.034133 768C576.034133 803.293867 547.362133 832.034133 512 832.034133 476.706133 832.034133 448.1024 803.293867 448.1024 768L448.1024 448.034133ZM512 321.058133C476.706133 321.058133 448.1024 292.317867 448.1024 257.024 448.1024 221.730133 476.706133 192.989867 512 192.989867 547.362133 192.989867 576.034133 221.730133 576.034133 257.024 576.034133 292.317867 547.362133 321.058133 512 321.058133Z"></path></symbol><symbol id="warning" viewBox="0 0 1024 1024"><path d="M511.999 0C228.937 0 0 228.937 0 511.999c0 283.064 228.937 511.999 511.999 511.999 283.064 0 511.999-228.934 511.999-511.999C1023.997 228.937 795.063 0 511.999 0zM511.999 804.568c-40.227 0-73.142-32.915-73.142-73.14 0-40.23 32.915-73.145 73.142-73.145 40.23 0 73.145 32.915 73.145 73.145C585.144 771.653 552.229 804.568 511.999 804.568zM585.144 511.999c0 40.23-32.915 73.145-73.145 73.145-40.227 0-73.142-32.915-73.142-73.145L438.857 292.572c0-40.23 32.915-73.145 73.142-73.145 40.23 0 73.145 32.915 73.145 73.145L585.144 511.999z"></path></symbol><symbol id="arrow-right" viewBox="0 0 1024 1024"><path d="M793.064708 512 741.922577 563.142131 741.922577 563.142131 281.571065 1023.493642 230.428935 972.351512 690.780446 512 230.428935 51.648488 281.571065 0.506358 741.922577 460.857869 741.922577 460.857869 793.064708 512Z"></path></symbol><symbol id="ellipsis" viewBox="0 0 1024 1024"><path d="M150 512m-86 0a86 86 0 1 0 172 0 86 86 0 1 0-172 0Z"></path><path d="M512 512m-86 0a86 86 0 1 0 172 0 86 86 0 1 0-172 0Z"></path><path d="M874 512m-86 0a86 86 0 1 0 172 0 86 86 0 1 0-172 0Z"></path></symbol><symbol id="double-arrow-right" viewBox="0 0 1024 1024"><path d="M475.52 13.504l497.728 497.728-498.496 498.496-45.248-45.248 453.248-453.248L430.144 58.752z"></path><path d="M112 13.504l497.728 497.728-498.496 498.496-45.248-45.248 453.248-453.248-452.48-452.48z"></path></symbol><symbol id="error" viewBox="0 0 1024 1024"><path d="M512 451.669333L328.832 268.501333a42.666667 42.666667 0 0 0-60.330667 60.330667L451.669333 512l-183.168 183.168a42.666667 42.666667 0 0 0 60.330667 60.330667L512 572.330667l183.168 183.168a42.666667 42.666667 0 0 0 60.330667-60.330667L572.330667 512l183.168-183.168a42.666667 42.666667 0 1 0-60.330667-60.330667L512 451.669333zM512 1024C229.248 1024 0 794.752 0 512S229.248 0 512 0s512 229.248 512 512-229.248 512-512 512z" fill="#2c2c2c"></path></symbol><symbol id="finance" viewBox="0 0 1024 1024"><path d="M512 42.666667a469.333333 469.333333 0 1 1 0 938.666666 469.333333 469.333333 0 0 1 0-938.666666zM512 0C229.717333 0 0 229.802667 0 512s229.717333 512 512 512 512-229.717333 512-512-229.717333-512-512-512z" fill="#2c2c2c"></path><path d="M608.938667 256.512L511.146667 454.144 414.805333 256.512H370.346667L490.666667 476.501333H350.037333V512H490.666667v83.285333H350.037333v31.061334H490.666667v141.226666h40.96V626.346667H674.133333v-31.061334H531.626667v-83.285333H674.133333v-35.584H531.626667l120.746666-219.989333z" fill="#2c2c2c"></path></symbol><symbol id="paper" viewBox="0 0 1024 1024"><path d="M1024 256L768 0H298.666667c-62.976 0-85.333333 29.013333-85.333334 85.333333v64H85.333333c-77.397333 0-85.333333 40.789333-85.333333 106.666667v661.333333C0 983.210667 7.936 1024 85.333333 1024h625.749334c77.397333 0 120.917333-83.456 120.917333-149.333333h85.333333c77.397333 0 106.666667-40.789333 106.666667-106.666667V256z m-106.666667 576h-597.333333A63.744 63.744 0 0 1 256 768V106.666667c0-41.301333 21.333333-64 64-64H725.333333c-0.597333 73.728 0 149.333333 0 149.333333 0 66.474667 28.757333 106.666667 106.666667 106.666667h149.333333V768c0 32.597333-25.6 64-64 64z m-128 42.666667c0 52.650667-46.933333 106.666667-85.333333 106.666666H85.333333c-38.4 0-42.666667-31.402667-42.666666-64V256c0-30.464 4.266667-64 42.666666-64h128V768c0 65.877333 29.269333 106.666667 106.666667 106.666667h469.333333z m-21.333333-682.666667V64L960 256h-128A63.061333 63.061333 0 0 1 768 192zM448 516.096a21.589333 21.589333 0 0 0-21.333333 21.333333c0 11.776 9.813333 21.333333 21.333333 21.333334h298.666667c11.776 0 21.333333-9.898667 21.333333-21.333334a21.504 21.504 0 0 0-21.333333-21.333333h-298.666667z m0-128a21.589333 21.589333 0 0 0-21.333333 21.333333c0 11.776 9.813333 21.333333 21.333333 21.333334h298.666667c11.776 0 21.333333-9.898667 21.333333-21.333334a21.504 21.504 0 0 0-21.333333-21.333333h-298.666667z" fill="#2c2c2c"></path></symbol><symbol id="setting" viewBox="0 0 1024 1024"><path d="M512.170667 264.192a241.664 241.664 0 1 0 0 483.413333 241.664 241.664 0 0 0 0-483.413333z m0 436.309333a194.56 194.56 0 1 1 0-389.12 194.56 194.56 0 0 1 0 389.12z" fill="#2c2c2c"></path><path d="M976.384 574.464a259.328 259.328 0 0 0-7.765333-4.096c-3.754667-1.877333-7.253333-3.669333-10.496-5.632a66.304 66.304 0 0 1-32.426667-48.213333 67.157333 67.157333 0 0 1 19.882667-55.210667c10.154667-10.24 22.784-16.896 36.181333-23.893333l2.816-1.365334c27.818667-14.506667 41.642667-37.546667 38.997333-65.024-4.266667-43.946667-16.128-79.872-36.096-109.824-18.688-27.989333-38.314667-40.533333-63.488-40.533333-10.24 0-21.504 2.048-34.56 6.314667a221.866667 221.866667 0 0 1-30.464 8.021333 62.378667 62.378667 0 0 1-10.496 0.853333c-29.184 0-56.32-20.48-63.146666-47.616-3.925333-15.872-2.048-32.938667 5.632-52.309333 11.946667-29.866667 5.12-57.173333-19.968-81.493333-12.8-12.458667-30.549333-27.818667-53.248-35.84-29.013333-10.496-52.48-17.408-72.106667-17.408-31.573333 0-53.162667 17.066667-76.714667 61.013333a61.952 61.952 0 0 1-55.808 33.962667 72.96 72.96 0 0 1-60.16-33.28C449.792 58.197333 447.146667 53.077333 444.416 47.786667c-2.218667-4.266667-4.522667-8.789333-7.168-13.141334-13.397333-22.186667-32.938667-33.877333-56.32-33.877333a75.776 75.776 0 0 0-9.045333 0.597333c-24.149333 2.901333-52.138667 7.509333-77.397334 19.797334-70.997333 34.304-77.909333 64.426667-66.56 118.869333 9.984 47.530667-7.424 81.322667-46.506666 90.368a76.544 76.544 0 0 1-17.408 1.877333c-11.690667 0-24.234667-2.218667-40.533334-7.338666a84.309333 84.309333 0 0 0-25.002666-4.096c-21.333333 0-39.936 9.642667-55.296 28.672-16.554667 20.565333-28.16 44.885333-36.608 76.629333C-9.386667 386.56 4.266667 418.218667 58.88 447.061333c21.504 11.349333 35.84 27.648 40.106667 45.738667a57.173333 57.173333 0 0 1-10.666667 46.933333c-10.24 14.506667-24.746667 25.770667-44.202667 34.133334-27.306667 11.946667-42.154667 33.450667-42.752 62.378666-1.194667 52.906667 16.128 98.816 51.370667 136.533334a65.024 65.024 0 0 0 49.408 20.992c4.437333 0 9.130667-0.341333 13.909333-1.109334 5.376-0.853333 10.666667-1.962667 15.786667-3.157333 9.045333-1.962667 17.493333-3.754667 25.6-3.754667a46.08 46.08 0 0 1 6.144 0.341334l1.194667 0.170666 1.109333-0.170666a62.122667 62.122667 0 0 1 8.106667-0.512c17.322667 0 32.682667 7.936 42.154666 21.845333 9.813333 14.506667 11.776 33.28 5.034667 50.346667a114.944 114.944 0 0 0-3.754667 11.690666c-0.853333 3.072-1.621333 5.973333-2.56 8.533334-11.434667 31.829333-4.778667 59.221333 19.626667 81.749333 24.746667 22.613333 55.722667 38.4 94.72 48.298667 19.029333 4.864 32.768 6.997333 44.544 6.997333 35.072 0 53.76-20.309333 75.690667-57.856 15.872-26.965333 36.010667-40.106667 61.610666-40.106667h0.938667c25.685333 0.341333 44.8 12.970667 60.16 39.68 1.706667 2.986667 3.328 5.973333 4.949333 9.301334 2.304 4.437333 4.693333 9.130667 7.594667 13.653333 14.677333 23.296 35.157333 35.157333 60.757333 35.157333 4.266667 0 8.789333-0.341333 13.312-1.024a238.677333 238.677333 0 0 0 97.109334-36.096c38.570667-25.088 50.517333-59.989333 34.389333-100.949333-9.813333-24.917333-8.277333-50.602667 4.010667-68.608 10.496-15.36 27.648-23.552 49.664-23.552 4.864 0 10.069333 0.426667 15.36 1.28l4.608 0.597333c6.144 0.938667 12.032 1.792 17.834666 3.072 11.434667 2.56 21.589333 3.84 31.061334 3.84 33.28 0 57.856-15.36 79.530666-49.749333 15.530667-24.746667 24.832-52.48 28.416-85.162667 4.096-37.205333-10.752-65.450667-44.288-84.053333z m-231.338667 305.834667c12.629333 41.130667 9.557333 48.896-27.306666 69.12a165.717333 165.717333 0 0 1-30.549334 13.397333c-17.92 5.546667-30.208 8.789333-39.850666 8.789333-13.568 0-23.210667-5.802667-38.4-37.546666-18.773333-39.253333-53.674667-60.928-98.133334-60.928H510.293333c-41.216 0.170667-74.752 21.504-99.754666 63.573333-17.237333 29.013333-22.186667 35.242667-36.010667 35.242667-7.338667 0-17.066667-1.792-31.402667-4.864a172.117333 172.117333 0 0 1-77.397333-38.4c-13.653333-11.776-16.469333-22.784-9.813333-38.058667 8.533333-19.882667 16.64-43.776 10.837333-71.168-10.154667-48.384-45.653333-78.506667-92.757333-78.506667-5.290667 0-10.752 0.426667-16.213334 1.194667a1083.733333 1083.733333 0 0 0-25.770666 3.84c-12.032 1.962667-20.309333 2.901333-26.965334 2.901333-19.114667 0-26.965333-6.997333-42.154666-37.290666a188.501333 188.501333 0 0 1-14.506667-39.765334c-5.461333-22.613333-6.144-32.768-2.816-40.106666 3.669333-8.362667 14.08-15.36 32-25.429334 58.88-33.28 82.176-94.378667 55.296-145.322666a128 128 0 0 0-64-58.026667c-19.626667-8.533333-27.306667-22.101333-24.832-43.776 3.328-30.293333 13.909333-57.173333 31.402667-79.786667 8.192-10.581333 16.042667-15.274667 25.6-15.274666 3.584 0 7.68 0.682667 12.117333 2.133333 17.066667 5.376 33.877333 10.24 51.541333 10.24 5.12 0 10.069333-0.426667 14.762667-1.194667 36.522667-6.314667 61.44-21.077333 76.288-45.226666 12.458667-20.138667 17.834667-46.08 17.408-84.138667a17.408 17.408 0 0 0-1.024-5.12l-0.170667-0.768c-8.704-51.114667-2.645333-61.696 45.994667-80.64 9.472-3.754667 18.858667-6.741333 27.818667-8.96 14.336-3.413333 25.088-5.973333 32.512-5.973333 11.434667 0 16.042667 6.058667 32.426666 34.218666 23.552 40.533333 56.832 61.013333 99.157334 61.013334h1.792c43.008-0.597333 77.653333-22.186667 100.266666-62.549334 14.762667-26.282667 20.650667-32 33.28-32 7.168 0 16.64 1.962667 28.757334 4.778667 19.882667 4.778667 34.56 11.008 46.336 19.626667 19.626667 14.250667 28.586667 23.637333 31.232 32.426666 2.474667 8.192-0.426667 17.749333-5.802667 33.792-11.52 34.730667-6.656 70.485333 13.312 98.133334 20.309333 28.330667 53.674667 44.458667 91.392 44.458666h0.853333a62.464 62.464 0 0 0 4.778667 0.170667c17.322667 0 36.437333-6.656 53.333333-12.629333a37.546667 37.546667 0 0 1 12.288-2.389334c7.765333 0 14.250667 3.413333 20.48 10.837334 22.698667 27.306667 34.816 60.416 36.778667 100.949333 0.682667 13.738667-8.874667 19.370667-24.576 27.477333l-0.170667 0.085334c-25.770667 13.312-61.013333 36.437333-69.973333 83.712-9.557333 50.346667 11.434667 96.085333 53.504 116.565333 48.128 23.296 46.250667 37.717333 31.317333 89.173333a115.285333 115.285333 0 0 1-22.613333 39.765334c-10.069333 12.458667-21.333333 18.517333-34.56 18.517333a53.418667 53.418667 0 0 1-14.933333-2.304 181.930667 181.930667 0 0 0-51.285334-8.106667 131.413333 131.413333 0 0 0-22.186666 1.877334c-29.184 4.949333-53.589333 21.248-68.608 45.738666-16.213333 26.453333-19.797333 60.074667-9.813334 92.501334z" fill="#2c2c2c"></path></symbol><symbol id="account" viewBox="0 0 1025 1024"><path d="M615.371909 595.166431a24.382982 24.382982 0 0 1-20.88752-25.150279c0.852552-20.631754 6.564649-32.311714 19.182416-47.401882 5.797352-6.990925 7.331946-9.37807 8.525519-13.385063 1.449338-4.689035 2.046124-9.804346 2.64291-22.592624 1.193573-23.18941 2.813421-34.016818 9.719091-46.975606 6.053118-11.424194 12.958788-16.624761 26.002831-23.53043a41.94555 41.94555 0 0 0 5.967863-3.410207c3.665973-5.115311 7.672966-17.647823 9.974856-30.521356 4.944801-27.79319 5.115311-48.595454-1.023062-61.639497a276.738323 276.738323 0 0 0-6.308884-11.67996 66.754808 66.754808 0 0 1-7.417201-25.917575 309.476313 309.476313 0 0 1 1.705104-50.300558l1.023062-11.935726 2.046125-22.507368a264.973108 264.973108 0 0 0 0.255765-45.867288 275.37424 275.37424 0 0 0-6.394138-30.521356 99.066522 99.066522 0 0 0-7.587712-16.795271 50.982599 50.982599 0 0 0-5.285821-7.758221l-25.065024-4.43327-12.532512-6.394139-15.516443-15.345933C540.858879 37.51228 490.217301 44.076929 409.395388 77.582216c-59.337607 19.779202-84.06161 80.651403-60.36067 195.7459a62.747815 62.747815 0 0 1-7.672966 45.526267l-3.239697 6.223629 0.426276 4.9448 1.449338 20.802265c0.596786 8.525518 1.364083 15.942719 2.30189 22.933644 3.239697 24.382982 8.866539 40.069936 13.214553 42.883357-1.960869-1.193573 2.13138 0 4.262759 0.596786l3.069187 0.682042a23.274665 23.274665 0 0 1 24.724003 22.166347l3.410207 37.256515c2.13138 22.336858 2.13138 22.336858 2.898676 38.791108 0.852552 2.4724 2.046124 4.092249 6.053118 8.610774 12.532512 13.896595 18.500375 24.127217 21.484306 41.263508a24.297727 24.297727 0 0 1-18.159354 27.79319l-8.355008 2.046124c-3.751228 8.269753-6.820415 14.919657-10.230621 21.484306-11.50945 23.104155-22.081092 38.791108-34.954625 47.913413l-7.587712 3.580718-14.749146 4.177504-24.297727 6.564649c-21.313796 8.951794-43.309633 18.500375-76.729665 33.249521l-5.541587 2.387145c-50.130047 22.081092-52.005661 22.933644-69.994505 30.691866-8.013987 3.410207-15.772209 6.394139-27.793189 10.656898l-5.797353 2.046124c-45.270502 16.11323-60.360669 25.66181-66.158022 39.217384 0 11.935726-0.17051 18.244609-1.193572 62.406794l-0.511531 21.569561c-0.341021 19.352926-0.596786 35.125135-0.682042 48.169178l21.825327 3.836484c32.993756 5.626842 69.738739 11.253684 109.3824 16.539505 113.133628 15.090167 226.267255 24.127217 331.64266 24.127217a2548.277412 2548.277412 0 0 0 331.642661-24.127217 2989.558238 2989.558238 0 0 0 131.207727-20.461244c0-12.958788-0.341021-28.730997-0.682042-48.083923l-0.511531-21.313796c-1.023062-44.24744-1.193573-50.726834 0.085255-54.904337-7.161435-21.313796-22.166348-30.947631-67.522104-46.975606l-5.797353-2.046124a434.801432 434.801432 0 0 1-27.707934-10.656898c-17.903588-7.758222-16.880526-7.331946-69.90925-30.691866l-6.138373-2.642911c-32.908501-14.493381-54.989593-24.041962-73.319457-31.970693l-21.058031-5.882608-6.138373-1.705103-14.749146-4.177504-7.502456-3.580718c-12.958788-9.122305-23.445175-24.724003-35.125136-47.913413a584.594788 584.594788 0 0 1-9.54858-20.120223l-13.385064-1.960869z m46.71984-544.780618l8.184498 3.069187a71.614354 71.614354 0 0 1 24.894513 27.537424c5.541587 9.719091 9.37807 19.011906 11.935726 27.537424 5.626842 23.018899 6.820415 28.560486 8.013987 37.768046 1.278828 10.230622 1.449338 19.352926 1.023062 40.069935 0 3.410207-0.426276 8.184498-1.108317 16.11323l-2.046125 22.592623-1.023062 11.50945c-1.705104 20.972775-2.387145 35.466156-1.705104 41.178253a19.523437 19.523437 0 0 0 2.046125 8.440263 235.304304 235.304304 0 0 1 7.331946 13.726085c11.594705 24.894513 11.424194 53.710765 4.859545 90.79677-3.410207 19.267671-9.37807 37.51228-17.988844 49.874281-5.967863 8.525518-11.594705 12.532512-22.848389 18.41512a32.56748 32.56748 0 0 0-5.967862 3.410207c-2.387145 4.518525-3.410207 10.656898-4.177504 25.832321-0.852552 17.733078-1.705104 25.406044-4.774291 35.3809a75.280326 75.280326 0 0 1-16.027974 28.134211c6.564649 2.046124 11.935726 6.820415 14.919657 13.044043 6.308884 14.15236 10.145367 22.422113 14.237616 30.60661 6.820415 13.470319 12.958788 23.274665 17.306802 27.878445l9.633835 2.728166 6.223629 1.705104 23.871451 6.820414c21.484306 9.122305 43.735909 18.75614 76.98543 33.334777l5.967863 2.728166c52.943468 23.274665 52.005661 22.848389 69.738739 30.521355a393.026392 393.026392 0 0 0 30.4361 11.50945c58.911331 20.88752 83.805845 36.744984 98.725502 85.084672 0 11.338939 0.085255 17.903588 1.108317 61.639497l0.511532 21.313796c0.682041 30.947631 0.852552 52.943468 0.511531 69.90925a24.382982 24.382982 0 0 1-19.608692 23.35992 3037.983182 3037.983182 0 0 1-153.715095 24.553492c-115.094497 15.345933-230.188993 24.553493-338.0368 24.553493-107.762551 0-222.942303-9.20756-338.036799-24.553493a3037.642161 3037.642161 0 0 1-153.80035-24.553492 24.382982 24.382982 0 0 1-19.608692-23.445176c-0.255766-16.880526 0-38.876363 0.596786-69.823994l0.511532-21.654817c1.023062-43.480143 1.108317-50.044792 2.387145-69.056698 13.640829-40.496212 38.450087-56.438931 97.276163-77.32645l5.797353-2.046125c11.083174-3.921738 17.988844-6.564649 24.724003-9.463325 17.903588-7.672966 19.864458-8.525518 69.823994-30.521355l5.456332-2.472401c33.761052-14.834402 55.9274-24.468237 80.480892-34.528349l27.111149-7.587711 9.633835-2.728166c4.262759-4.60378 10.571643-14.493381 17.306802-27.878445 4.092249-8.184498 7.928732-16.45425 14.237616-30.521355a24.297727 24.297727 0 0 1 7.07618-9.037049 67.010574 67.010574 0 0 1-15.857464-29.413039l-4.092249-44.75897-1.790359-19.267672a45.270502 45.270502 0 0 1-11.338939-4.77429c-21.05803-13.470319-30.350845-39.387894-35.466156-77.582216a467.368912 467.368912 0 0 1-2.557655-25.576555l-1.449338-21.143285-0.511532-6.223629a39.728915 39.728915 0 0 1 1.449339-14.408126c1.534593-5.541587 0.682041-3.751228 7.331945-16.539505 3.410207-6.308884 3.921738-8.866539 3.069187-13.129298-28.219465-137.005079 6.820415-223.112813 91.052535-251.076513 92.672384-38.450087 156.699026-46.890351 231.894097 0.937807l13.896595 13.214553 23.956706 4.262759z" fill="#2c2c2c"></path></symbol><symbol id="double-arrow-left" viewBox="0 0 1024 1024"><path d="M548.48 1010.496l-497.728-497.728 498.496-498.496 45.248 45.248-453.248 453.248 452.608 452.48z"></path><path d="M912 1010.496l-497.728-497.728 498.496-498.496 45.248 45.248-453.248 453.248 452.48 452.48z"></path></symbol><symbol id="arrow-left" viewBox="0 0 1024 1024"><path d="M230.935 512l511.494-511.494 51.142 51.142-460.352 460.352 460.352 460.352-51.142 51.142-511.494-511.494z"></path></symbol><symbol id="search" viewBox="0 0 1024 1024">
    <path d="M192 480a256 256 0 1 1 512 0 256 256 0 0 1-512 0m631.776 362.496l-143.2-143.168A318.464 318.464 0 0 0 768 480c0-176.736-143.264-320-320-320S128 303.264 128 480s143.264 320 320 320a318.016 318.016 0 0 0 184.16-58.592l146.336 146.368c12.512 12.48 32.768 12.48 45.28 0 12.48-12.512 12.48-32.768 0-45.28" p-id="2783"></path>
  </symbol></svg>