<?xml version="1.0" standalone="no"?><!DOCTYPE svg PUBLIC "-//W3C//DTD SVG 1.1//EN" "http://www.w3.org/Graphics/SVG/1.1/DTD/svg11.dtd"><svg t="1496802513667" class="icon" style="" viewBox="0 0 1025 1024" version="1.1" xmlns="http://www.w3.org/2000/svg" p-id="4037" xmlns:xlink="http://www.w3.org/1999/xlink" width="200.1953125" height="200"><defs><style type="text/css"></style></defs><path d="M615.371909 595.166431a24.382982 24.382982 0 0 1-20.88752-25.150279c0.852552-20.631754 6.564649-32.311714 19.182416-47.401882 5.797352-6.990925 7.331946-9.37807 8.525519-13.385063 1.449338-4.689035 2.046124-9.804346 2.64291-22.592624 1.193573-23.18941 2.813421-34.016818 9.719091-46.975606 6.053118-11.424194 12.958788-16.624761 26.002831-23.53043a41.94555 41.94555 0 0 0 5.967863-3.410207c3.665973-5.115311 7.672966-17.647823 9.974856-30.521356 4.944801-27.79319 5.115311-48.595454-1.023062-61.639497a276.738323 276.738323 0 0 0-6.308884-11.67996 66.754808 66.754808 0 0 1-7.417201-25.917575 309.476313 309.476313 0 0 1 1.705104-50.300558l1.023062-11.935726 2.046125-22.507368a264.973108 264.973108 0 0 0 0.255765-45.867288 275.37424 275.37424 0 0 0-6.394138-30.521356 99.066522 99.066522 0 0 0-7.587712-16.795271 50.982599 50.982599 0 0 0-5.285821-7.758221l-25.065024-4.43327-12.532512-6.394139-15.516443-15.345933C540.858879 37.51228 490.217301 44.076929 409.395388 77.582216c-59.337607 19.779202-84.06161 80.651403-60.36067 195.7459a62.747815 62.747815 0 0 1-7.672966 45.526267l-3.239697 6.223629 0.426276 4.9448 1.449338 20.802265c0.596786 8.525518 1.364083 15.942719 2.30189 22.933644 3.239697 24.382982 8.866539 40.069936 13.214553 42.883357-1.960869-1.193573 2.13138 0 4.262759 0.596786l3.069187 0.682042a23.274665 23.274665 0 0 1 24.724003 22.166347l3.410207 37.256515c2.13138 22.336858 2.13138 22.336858 2.898676 38.791108 0.852552 2.4724 2.046124 4.092249 6.053118 8.610774 12.532512 13.896595 18.500375 24.127217 21.484306 41.263508a24.297727 24.297727 0 0 1-18.159354 27.79319l-8.355008 2.046124c-3.751228 8.269753-6.820415 14.919657-10.230621 21.484306-11.50945 23.104155-22.081092 38.791108-34.954625 47.913413l-7.587712 3.580718-14.749146 4.177504-24.297727 6.564649c-21.313796 8.951794-43.309633 18.500375-76.729665 33.249521l-5.541587 2.387145c-50.130047 22.081092-52.005661 22.933644-69.994505 30.691866-8.013987 3.410207-15.772209 6.394139-27.793189 10.656898l-5.797353 2.046124c-45.270502 16.11323-60.360669 25.66181-66.158022 39.217384 0 11.935726-0.17051 18.244609-1.193572 62.406794l-0.511531 21.569561c-0.341021 19.352926-0.596786 35.125135-0.682042 48.169178l21.825327 3.836484c32.993756 5.626842 69.738739 11.253684 109.3824 16.539505 113.133628 15.090167 226.267255 24.127217 331.64266 24.127217a2548.277412 2548.277412 0 0 0 331.642661-24.127217 2989.558238 2989.558238 0 0 0 131.207727-20.461244c0-12.958788-0.341021-28.730997-0.682042-48.083923l-0.511531-21.313796c-1.023062-44.24744-1.193573-50.726834 0.085255-54.904337-7.161435-21.313796-22.166348-30.947631-67.522104-46.975606l-5.797353-2.046124a434.801432 434.801432 0 0 1-27.707934-10.656898c-17.903588-7.758222-16.880526-7.331946-69.90925-30.691866l-6.138373-2.642911c-32.908501-14.493381-54.989593-24.041962-73.319457-31.970693l-21.058031-5.882608-6.138373-1.705103-14.749146-4.177504-7.502456-3.580718c-12.958788-9.122305-23.445175-24.724003-35.125136-47.913413a584.594788 584.594788 0 0 1-9.54858-20.120223l-13.385064-1.960869z m46.71984-544.780618l8.184498 3.069187a71.614354 71.614354 0 0 1 24.894513 27.537424c5.541587 9.719091 9.37807 19.011906 11.935726 27.537424 5.626842 23.018899 6.820415 28.560486 8.013987 37.768046 1.278828 10.230622 1.449338 19.352926 1.023062 40.069935 0 3.410207-0.426276 8.184498-1.108317 16.11323l-2.046125 22.592623-1.023062 11.50945c-1.705104 20.972775-2.387145 35.466156-1.705104 41.178253a19.523437 19.523437 0 0 0 2.046125 8.440263 235.304304 235.304304 0 0 1 7.331946 13.726085c11.594705 24.894513 11.424194 53.710765 4.859545 90.79677-3.410207 19.267671-9.37807 37.51228-17.988844 49.874281-5.967863 8.525518-11.594705 12.532512-22.848389 18.41512a32.56748 32.56748 0 0 0-5.967862 3.410207c-2.387145 4.518525-3.410207 10.656898-4.177504 25.832321-0.852552 17.733078-1.705104 25.406044-4.774291 35.3809a75.280326 75.280326 0 0 1-16.027974 28.134211c6.564649 2.046124 11.935726 6.820415 14.919657 13.044043 6.308884 14.15236 10.145367 22.422113 14.237616 30.60661 6.820415 13.470319 12.958788 23.274665 17.306802 27.878445l9.633835 2.728166 6.223629 1.705104 23.871451 6.820414c21.484306 9.122305 43.735909 18.75614 76.98543 33.334777l5.967863 2.728166c52.943468 23.274665 52.005661 22.848389 69.738739 30.521355a393.026392 393.026392 0 0 0 30.4361 11.50945c58.911331 20.88752 83.805845 36.744984 98.725502 85.084672 0 11.338939 0.085255 17.903588 1.108317 61.639497l0.511532 21.313796c0.682041 30.947631 0.852552 52.943468 0.511531 69.90925a24.382982 24.382982 0 0 1-19.608692 23.35992 3037.983182 3037.983182 0 0 1-153.715095 24.553492c-115.094497 15.345933-230.188993 24.553493-338.0368 24.553493-107.762551 0-222.942303-9.20756-338.036799-24.553493a3037.642161 3037.642161 0 0 1-153.80035-24.553492 24.382982 24.382982 0 0 1-19.608692-23.445176c-0.255766-16.880526 0-38.876363 0.596786-69.823994l0.511532-21.654817c1.023062-43.480143 1.108317-50.044792 2.387145-69.056698 13.640829-40.496212 38.450087-56.438931 97.276163-77.32645l5.797353-2.046125c11.083174-3.921738 17.988844-6.564649 24.724003-9.463325 17.903588-7.672966 19.864458-8.525518 69.823994-30.521355l5.456332-2.472401c33.761052-14.834402 55.9274-24.468237 80.480892-34.528349l27.111149-7.587711 9.633835-2.728166c4.262759-4.60378 10.571643-14.493381 17.306802-27.878445 4.092249-8.184498 7.928732-16.45425 14.237616-30.521355a24.297727 24.297727 0 0 1 7.07618-9.037049 67.010574 67.010574 0 0 1-15.857464-29.413039l-4.092249-44.75897-1.790359-19.267672a45.270502 45.270502 0 0 1-11.338939-4.77429c-21.05803-13.470319-30.350845-39.387894-35.466156-77.582216a467.368912 467.368912 0 0 1-2.557655-25.576555l-1.449338-21.143285-0.511532-6.223629a39.728915 39.728915 0 0 1 1.449339-14.408126c1.534593-5.541587 0.682041-3.751228 7.331945-16.539505 3.410207-6.308884 3.921738-8.866539 3.069187-13.129298-28.219465-137.005079 6.820415-223.112813 91.052535-251.076513 92.672384-38.450087 156.699026-46.890351 231.894097 0.937807l13.896595 13.214553 23.956706 4.262759z" p-id="4038"></path></svg>