<svg xmlns="http://www.w3.org/2000/svg" width="13" height="13" viewBox="0 0 13 13">
    <path d="M7.859 2.974c-.306.306-.57.568-1.017 1.01-1.924 1.9-2.42 2.431-2.818 3.107-.548.93-.432 1.722.36 2.495 1.45 1.414 2.286.913 5.686-2.522.382-.386.598-.604.852-.857 1.742-1.743 2.15-3.44.348-5.133-1.422-1.336-3.176-1.206-5.095.301-1.365 1.36-1.365 1.36-2.845 2.84C.11 7.435 0 9.842 2.212 11.793c2.221 1.96 4.781 1.487 8.638-2.37a.5.5 0 1 0-.708-.707c-3.52 3.52-5.5 3.887-7.269 2.327-1.75-1.545-1.671-3.285 1.164-6.12l2.8-2.8C8.356.933 9.565.843 10.585 1.802c1.288 1.21 1.026 2.3-.37 3.697-.255.255-.473.473-.856.86-2.944 2.976-3.474 3.293-4.277 2.51-.466-.455-.508-.743-.197-1.272.332-.564.826-1.09 2.66-2.903.448-.442.714-.706 1.02-1.013a.5.5 0 1 0-.706-.708z"/>
</svg>
