<?xml version="1.0" standalone="no"?><!DOCTYPE svg PUBLIC "-//W3C//DTD SVG 1.1//EN" "http://www.w3.org/Graphics/SVG/1.1/DTD/svg11.dtd"><svg t="1512538691128" class="icon" style="" viewBox="0 0 1382 1024" version="1.1" xmlns="http://www.w3.org/2000/svg" p-id="1503" xmlns:xlink="http://www.w3.org/1999/xlink" width="269.921875" height="200"><defs><style type="text/css"></style></defs><path d="M1301.5808 403.9936c-0.0512 0-0.0512-0.0256 0 0a1112.4992 1112.4992 0 0 0-47.744-63.488l-2.048-2.4832h0.384l-15.9232-18.7392-0.2304-0.256a828.3648 828.3648 0 0 0-60.1088-64.2816c-42.0096-39.68-62.5152-45.0304-77.0048-45.0304h-223.5648c-6.1696 0-12.288 0.6656-18.2272 1.9456v-99.072A87.0656 87.0656 0 0 0 770.1248 25.6H112.5888A87.0656 87.0656 0 0 0 25.6 112.5888v683.776a87.0656 87.0656 0 0 0 86.9888 86.9632H213.248c16.0768 75.6224 84.1216 131.5072 162.304 131.5072 78.208 0 146.2528-55.8848 162.304-131.5072h232.192a86.528 86.528 0 0 0 52.6336-17.7152 86.272 86.272 0 0 0 52.5824 17.7152h21.8112c16.0512 75.6224 84.1216 131.5072 162.2784 131.5072 78.1568 0 146.2528-55.8848 162.3296-131.5072h48.128A87.0656 87.0656 0 0 0 1356.8 796.3392V520.2176c0-12.2368-3.1488-31.5904-27.52-73.1904-7.68-13.1072-16.9984-27.5968-27.6992-43.008z m-925.952 542.08a97.2288 97.2288 0 0 1-97.1008-97.1264c0-53.5552 43.52-97.152 97.0752-97.152a97.28 97.28 0 0 1 97.152 97.152 97.28 97.28 0 0 1-97.152 97.1264z m412.672-649.3696v499.6352c0 10.0864-8.1664 18.2528-18.2272 18.2528h-232.192a165.632 165.632 0 0 0-157.1584-131.456h-0.512v0.0512h-1.0496c-0.128 0-0.256-0.0512-0.3328 0H373.3504 371.712h-0.4096-0.5632a165.504 165.504 0 0 0-157.3376 131.456h-100.864a18.2528 18.2528 0 0 1-18.2272-18.2528V112.5888c0-10.0608 8.192-18.2528 18.2528-18.2528H770.048c10.0608 0 18.2528 8.192 18.2528 18.2528v184.1152z m271.104 649.3696a97.28 97.28 0 0 1-97.1264-97.1264 97.28 97.28 0 0 1 97.152-97.152 97.28 97.28 0 0 1 97.1264 97.152 97.28 97.28 0 0 1-97.1264 97.1264z m228.608-149.7344c0 10.0864-8.192 18.2528-18.2528 18.2528h-48.0512c-15.1552-71.1168-76.5952-125.5424-149.76-131.0208v0.3072l-0.256-0.0512-0.2304-0.0256-0.2304-0.0512-0.2304-0.0512c-0.0256 0-0.128 0-0.2304-0.0512l-1.152-0.1792H1068.16c-0.3328 0-0.6912 0-0.9728-0.0512H1064.96s-0.0768 0-0.1024-0.0512h-0.0512v-0.1792 0.1792l-0.1536-0.0256H1064.2176v-0.1024 0.1024h-1.2032c-0.0768 0-0.2304-0.0512-0.3584 0H1056.0512v0.0256l-0.2304-0.0768v0.0768h-0.0512v-0.0768l-0.1792 0.128h-0.0512v-0.128l-0.1792 0.1792-0.2304-0.1792v0.1792-0.1792l-0.1792 0.128h-0.0512v-0.128l-0.1792 0.0768v-0.0768l-0.256 0.0512h-5.1968l-1.152 0.1792v-0.1024h-0.1792v0.1536l-0.256-0.1536v0.1792h-0.0256v-0.1792l-0.1792 0.256v-0.256h-0.2048v0.256h-0.0256v-0.256H1047.04l-1.536 0.1024c-72.4992 6.144-133.2224 60.288-148.224 130.8928h-21.7856a18.2528 18.2528 0 0 1-18.2528-18.2528V296.704c0-10.0608 8.192-18.2272 18.2528-18.2272h220.3136c3.5584 1.7408 14.848 8.448 38.272 31.232l5.2736 5.1968h-106.0096a87.0656 87.0656 0 0 0-86.9888 86.9632v105.216a87.0656 87.0656 0 0 0 86.9888 86.9888h254.8992v202.2656h-0.256z m0-271.0528h-254.8992a18.2528 18.2528 0 0 1-18.2528-18.2272v-105.216c0-10.0864 8.192-18.2528 18.2528-18.2528h167.1168a1047.168 1047.168 0 0 1 24.192 31.0272c13.568 18.1504 26.112 36.0704 36.1728 51.8912l4.6592-2.4832-4.352 2.9184 9.7024-5.7344-9.5232 6.0416 4.608 7.424c19.7888 32.384 22.144 44.3904 22.3744 45.952v4.6592h-0.0512z" p-id="1504"></path></svg>