<?xml version="1.0" standalone="no"?><!DOCTYPE svg PUBLIC "-//W3C//DTD SVG 1.1//EN" "http://www.w3.org/Graphics/SVG/1.1/DTD/svg11.dtd"><svg t="1496802350959" class="icon" style="" viewBox="0 0 1024 1024" version="1.1" xmlns="http://www.w3.org/2000/svg" p-id="2338" xmlns:xlink="http://www.w3.org/1999/xlink" width="200" height="200"><defs><style type="text/css"></style></defs><path d="M512 0C229.2352 0 0 229.2352 0 512c0 282.7648 229.2352 512 512 512s512-229.2352 512-512C1024 229.2352 794.7648 0 512 0zM512 934.4C278.72 934.4 89.6 745.28 89.6 512 89.6 278.72 278.72 89.6 512 89.6s422.4 189.12 422.4 422.4C934.4 745.28 745.28 934.4 512 934.4z" p-id="2339"></path><path d="M512 729.6m-64 0a5 5 0 1 0 128 0 5 5 0 1 0-128 0Z" p-id="2340"></path><path d="M469.3376 567.8592C471.8976 594.4448 488.8192 614.4 512 614.4c23.1808 0 40.1024-21.3504 42.6624-46.5408l20.4288-264.832C575.68 299.6096 576 292.1344 576 288.576 576 254.272 547.3408 230.4 512 230.4s-64 23.872-64 58.176c0 3.5584 0.3072 11.0336 0.896 14.4384L469.3376 567.8592z" p-id="2341"></path></svg>