<?xml version="1.0" standalone="no"?><!DOCTYPE svg PUBLIC "-//W3C//DTD SVG 1.1//EN" "http://www.w3.org/Graphics/SVG/1.1/DTD/svg11.dtd"><svg t="1496802313608" class="icon" style="" viewBox="0 0 1024 1024" version="1.1" xmlns="http://www.w3.org/2000/svg" p-id="2003" xmlns:xlink="http://www.w3.org/1999/xlink" width="200" height="200"><defs><style type="text/css"></style></defs><path d="M566.594 512.533l288.992-288.994c12.998-12.993 11.492-35.558-3.361-50.407-14.846-14.846-37.405-16.353-50.406-3.358l-288.991 288.994-288.99-288.994c-12.998-12.995-35.559-11.489-50.407 3.358-14.851 14.849-16.359 37.414-3.36 50.407l288.992 288.994-288.987 288.99c-12.995 12.99-11.496 35.56 3.355 50.407 14.842 14.846 37.416 16.349 50.407 3.36l288.99-288.992 288.993 288.992c12.988 12.989 35.564 11.486 50.406-3.36 14.852-14.847 16.35-37.416 3.355-50.408l-288.988-288.99z" p-id="2004"></path></svg>