<?xml version="1.0" standalone="no"?><!DOCTYPE svg PUBLIC "-//W3C//DTD SVG 1.1//EN" "http://www.w3.org/Graphics/SVG/1.1/DTD/svg11.dtd"><svg t="1497857176712" class="icon" style="" viewBox="0 0 1024 1024" version="1.1" xmlns="http://www.w3.org/2000/svg" p-id="10786" xmlns:xlink="http://www.w3.org/1999/xlink" width="200" height="200"><defs><style type="text/css"></style></defs><path d="M848.034 959.882H428.098c-67.471 0-123.942-47.981-137.11-111.639l-0.126-0.104H176.143c-61.912 0-112.101-50.19-112.101-112.101V175.785c0-61.861 50.148-112.009 112.009-112.009h420.074c67.493 0 123.942 47.998 137.11 111.639l0.126 0.104h114.674c61.937 0 112.146 50.21 112.146 112.146v560.07c0 61.937-50.21 112.147-112.147 112.147z m-251.91-840.08H176.006c-30.903 0-55.955 25.052-55.955 55.955V736.02c0 30.979 25.114 56.093 56.093 56.093H287.94l0.137-0.137V287.665c0-61.937 50.21-112.146 112.146-112.146h274.185c-11.723-32.3-41.996-55.717-78.284-55.717z m308.048 167.863c0-30.995-25.126-56.121-56.121-56.121H400.178c-30.979 0-56.093 25.114-56.093 56.093v560.098c0 30.995 25.126 56.121 56.121 56.121h447.873c30.979 0 56.093-25.114 56.093-56.093V287.665zM820.797 763.79H427.46c-15.442 0-28.083-12.602-28.083-28.01v-0.006c0-15.408 12.641-28.01 28.083-28.01h393.338c15.447 0 28.083 12.602 28.083 28.01v0.006c-0.001 15.408-12.636 28.01-28.084 28.01z m0-168.082H427.46c-15.442 0-28.083-12.608-28.083-28.01s12.641-28.01 28.083-28.01h393.338c15.447 0 28.083 12.608 28.083 28.01s-12.636 28.01-28.084 28.01z m0-168.077H427.46c-15.442 0-28.083-12.608-28.083-28.016 0-15.397 12.641-28.004 28.083-28.004h393.338c15.447 0 28.083 12.608 28.083 28.004-0.001 15.408-12.636 28.016-28.084 28.016z" p-id="10787"></path></svg>