<?xml version="1.0" standalone="no"?><!DOCTYPE svg PUBLIC "-//W3C//DTD SVG 1.1//EN" "http://www.w3.org/Graphics/SVG/1.1/DTD/svg11.dtd"><svg t="1497865134576" class="icon" style="" viewBox="0 0 1024 1024" version="1.1" xmlns="http://www.w3.org/2000/svg" p-id="4497" xmlns:xlink="http://www.w3.org/1999/xlink" width="200" height="200"><defs><style type="text/css"></style></defs><path d="M118.686634 894.891504l264.694521-74.163093 27.383674-27.426653L224.42998 606.961792l-27.67327 27.628244L118.686634 894.891504 118.686634 894.891504 118.686634 894.891504zM255.48016 575.911612l186.364525 186.359408L806.061874 398.006759 619.726002 211.664747 255.48016 575.911612 255.48016 575.911612 255.48016 575.911612zM890.129548 202.554252l-74.977645-74.976622c-42.885739-42.886763-68.471464-42.886763-111.343901 0l-53.013401 53.057403L837.13559 366.95044l53.014424-53.03182C933.020404 271.027763 933.020404 245.445108 890.129548 202.554252L890.129548 202.554252 890.129548 202.554252 890.129548 202.554252zM380.239606 132.874263c-42.885739-42.890856-68.497047-42.890856-111.382786 0L91.607906 310.098617l-31.05018-31.055297L246.897691 92.707448c42.885739-42.890856 112.394836-42.890856 155.285692 0l102.639658 102.645798-31.05018 31.05018L380.239606 132.874263 380.239606 132.874263 380.239606 132.874263 380.239606 132.874263zM169.241031 325.646732l62.130036-62.131059 31.075763 31.055297L200.31577 356.696911l-3.687996-3.687996 34.717709 34.766828 93.155656-93.203752 31.079856 31.075763L262.420223 418.801365l9.485025 9.488095-31.069623 31.055297L91.588463 310.098617l31.074739-31.055297L169.241031 325.646732 169.241031 325.646732 169.241031 325.646732zM604.066347 760.445442l93.155656 93.15975 46.602388 46.597271L890.001635 753.995543c42.886763-42.895973 42.886763-68.502164 0-111.388926l-98.03478-98.029664 31.05018-31.060413 107.146299 107.151415c42.885739 42.885739 42.885739 112.388696 0 155.284669L774.878664 931.234223l-31.055297 31.055297-31.051203-31.055297L559.024501 777.48963l31.05632-31.055297L604.066347 760.445442 604.066347 760.445442 604.066347 760.445442 604.066347 760.445442zM728.300836 698.345082l-93.15975 93.15054-31.074739-31.05018 93.155656-93.199659L728.300836 698.345082 728.300836 698.345082 728.300836 698.345082zM743.824391 744.898351l31.055297 31.074739-77.633125 77.632101-31.05018-31.074739L743.824391 744.898351 743.824391 744.898351 743.824391 744.898351zM743.824391 744.898351" p-id="4498"></path></svg>