<?xml version="1.0" standalone="no"?><!DOCTYPE svg PUBLIC "-//W3C//DTD SVG 1.1//EN" "http://www.w3.org/Graphics/SVG/1.1/DTD/svg11.dtd"><svg t="1496802365094" class="icon" style="" viewBox="0 0 1024 1024" version="1.1" xmlns="http://www.w3.org/2000/svg" p-id="2562" xmlns:xlink="http://www.w3.org/1999/xlink" width="200" height="200"><defs><style type="text/css"></style></defs><path d="M512 451.669333L328.832 268.501333a42.666667 42.666667 0 0 0-60.330667 60.330667L451.669333 512l-183.168 183.168a42.666667 42.666667 0 0 0 60.330667 60.330667L512 572.330667l183.168 183.168a42.666667 42.666667 0 0 0 60.330667-60.330667L572.330667 512l183.168-183.168a42.666667 42.666667 0 1 0-60.330667-60.330667L512 451.669333zM512 1024C229.248 1024 0 794.752 0 512S229.248 0 512 0s512 229.248 512 512-229.248 512-512 512z"></path></svg>