<?xml version="1.0" standalone="no"?>
<!DOCTYPE svg PUBLIC "-//W3C//DTD SVG 1.1//EN" "http://www.w3.org/Graphics/SVG/1.1/DTD/svg11.dtd">
<svg class="icon" style="" viewBox="0 0 1024 1024" version="1.1" xmlns="http://www.w3.org/2000/svg" xmlns:xlink="http://www.w3.org/1999/xlink" width="200" height="200">
<path d="M512 42.666667a469.333333 469.333333 0 1 1 0 938.666666 469.333333 469.333333 0 0 1 0-938.666666zM512 0C229.717333 0 0 229.802667 0 512s229.717333 512 512 512 512-229.717333 512-512-229.717333-512-512-512z"></path>
<path d="M608.938667 256.512L511.146667 454.144 414.805333 256.512H370.346667L490.666667 476.501333H350.037333V512H490.666667v83.285333H350.037333v31.061334H490.666667v141.226666h40.96V626.346667H674.133333v-31.061334H531.626667v-83.285333H674.133333v-35.584H531.626667l120.746666-219.989333z">
</path>
</svg>