<?xml version="1.0" standalone="no"?><!DOCTYPE svg PUBLIC "-//W3C//DTD SVG 1.1//EN" "http://www.w3.org/Graphics/SVG/1.1/DTD/svg11.dtd"><svg t="1496802428666" class="icon" style="" viewBox="0 0 1024 1024" version="1.1" xmlns="http://www.w3.org/2000/svg" p-id="2789" xmlns:xlink="http://www.w3.org/1999/xlink" width="200" height="200"><defs><style type="text/css"></style></defs><path d="M512 0C229.307733 0 0 229.239467 0 512 0 794.760533 229.307733 1024 512 1024 794.692267 1024 1024 794.760533 1024 512 1024 229.239467 794.692267 0 512 0ZM448.1024 448.034133C448.1024 412.672 476.706133 384 512 384 547.362133 384 576.034133 412.672 576.034133 448.034133L576.034133 768C576.034133 803.293867 547.362133 832.034133 512 832.034133 476.706133 832.034133 448.1024 803.293867 448.1024 768L448.1024 448.034133ZM512 321.058133C476.706133 321.058133 448.1024 292.317867 448.1024 257.024 448.1024 221.730133 476.706133 192.989867 512 192.989867 547.362133 192.989867 576.034133 221.730133 576.034133 257.024 576.034133 292.317867 547.362133 321.058133 512 321.058133Z" p-id="2790"></path></svg>