<?xml version="1.0" standalone="no"?><!DOCTYPE svg PUBLIC "-//W3C//DTD SVG 1.1//EN" "http://www.w3.org/Graphics/SVG/1.1/DTD/svg11.dtd"><svg t="1512538701241" class="icon" style="" viewBox="0 0 1024 1024" version="1.1" xmlns="http://www.w3.org/2000/svg" p-id="1611" xmlns:xlink="http://www.w3.org/1999/xlink" width="200" height="200"><defs><style type="text/css"></style></defs><path d="M512 256.33104c-77.997422 0-141.227512 63.22702-141.227512 141.224442s63.23009 141.227512 141.227512 141.227512 141.230582-63.23009 141.230582-141.227512S589.996398 256.33104 512 256.33104zM512 482.291374c-46.796816 0-84.736916-37.933961-84.736916-84.736916 0-46.796816 37.939077-84.733846 84.736916-84.733846 46.799886 0 84.736916 37.936007 84.736916 84.733846C596.735893 444.358437 558.799886 482.291374 512 482.291374zM512 58.611909c-187.194426 0-338.945619 151.749146-338.945619 338.942549 0 187.196473 338.945619 564.912094 338.945619 564.912094s338.945619-377.715621 338.945619-564.912094C850.945619 210.361055 699.196473 58.611909 512 58.611909zM229.544977 397.555481c0-155.991774 126.461203-282.455023 282.455023-282.455023 155.99689 0 282.455023 126.46325 282.455023 282.455023 0 141.470035-282.455023 508.421498-282.455023 508.421498S229.544977 537.053606 229.544977 397.555481z" p-id="1612"></path></svg>