<?xml version="1.0" standalone="no"?><!DOCTYPE svg PUBLIC "-//W3C//DTD SVG 1.1//EN" "http://www.w3.org/Graphics/SVG/1.1/DTD/svg11.dtd"><svg t="1496802528435" class="icon" style="" viewBox="0 0 1024 1024" version="1.1" xmlns="http://www.w3.org/2000/svg" p-id="4372" xmlns:xlink="http://www.w3.org/1999/xlink" width="200" height="200"><defs><style type="text/css"></style></defs><path d="M1024 256L768 0H298.666667c-62.976 0-85.333333 29.013333-85.333334 85.333333v64H85.333333c-77.397333 0-85.333333 40.789333-85.333333 106.666667v661.333333C0 983.210667 7.936 1024 85.333333 1024h625.749334c77.397333 0 120.917333-83.456 120.917333-149.333333h85.333333c77.397333 0 106.666667-40.789333 106.666667-106.666667V256z m-106.666667 576h-597.333333A63.744 63.744 0 0 1 256 768V106.666667c0-41.301333 21.333333-64 64-64H725.333333c-0.597333 73.728 0 149.333333 0 149.333333 0 66.474667 28.757333 106.666667 106.666667 106.666667h149.333333V768c0 32.597333-25.6 64-64 64z m-128 42.666667c0 52.650667-46.933333 106.666667-85.333333 106.666666H85.333333c-38.4 0-42.666667-31.402667-42.666666-64V256c0-30.464 4.266667-64 42.666666-64h128V768c0 65.877333 29.269333 106.666667 106.666667 106.666667h469.333333z m-21.333333-682.666667V64L960 256h-128A63.061333 63.061333 0 0 1 768 192zM448 516.096a21.589333 21.589333 0 0 0-21.333333 21.333333c0 11.776 9.813333 21.333333 21.333333 21.333334h298.666667c11.776 0 21.333333-9.898667 21.333333-21.333334a21.504 21.504 0 0 0-21.333333-21.333333h-298.666667z m0-128a21.589333 21.589333 0 0 0-21.333333 21.333333c0 11.776 9.813333 21.333333 21.333333 21.333334h298.666667c11.776 0 21.333333-9.898667 21.333333-21.333334a21.504 21.504 0 0 0-21.333333-21.333333h-298.666667z"></path></svg>