<?xml version="1.0" standalone="no"?><!DOCTYPE svg PUBLIC "-//W3C//DTD SVG 1.1//EN" "http://www.w3.org/Graphics/SVG/1.1/DTD/svg11.dtd"><svg t="1496802359103" class="icon" style="" viewBox="0 0 1024 1024" version="1.1" xmlns="http://www.w3.org/2000/svg" p-id="2451" xmlns:xlink="http://www.w3.org/1999/xlink" width="200" height="200"><defs><style type="text/css"></style></defs><path d="M511.872072 0.95946c-280.866013 0-508.577925 228.991192-508.577925 511.52027 0 282.465113 227.711912 511.52027 508.577925 511.52027s508.641889-229.055156 508.641889-511.52027C1020.449997 229.950653 792.738085 0.95946 511.872072 0.95946zM561.508152 791.938535c0 18.101818-15.735149 27.696421-52.578425 27.696421L480.913486 819.634955c-36.843276 0-52.642389-9.530639-52.642389-27.696421l0-79.571241c0-18.165782 15.799113-27.696421 52.642389-27.696421l28.016241 0c36.843276 0 52.578425 9.466675 52.578425 27.696421L561.508152 791.938535zM551.913549 602.477107C546.668499 620.706852 534.387407 625.887938 505.411706 625.887938L485.327004 625.887938c-30.638766 0-42.919858-6.908114-42.919858-25.13786 0-108.930726 135.859579-178.907365 135.859579-232.573178C578.202761 337.921919 558.054095 319.820101 513.343244 319.820101 462.491848 319.820101 427.439565 346.557062 415.222437 346.557062c-24.626148 0-55.264913-52.770317-55.264913-70.872134 0-51.043288 96.457743-70.104566 164.83528-70.104566 117.373977 0 190.228996 58.782935 190.228996 153.897433C715.0218 491.819352 567.712662 519.515772 551.913549 602.477107z" p-id="2452"></path></svg>