<?xml version="1.0" standalone="no"?><!DOCTYPE svg PUBLIC "-//W3C//DTD SVG 1.1//EN" "http://www.w3.org/Graphics/SVG/1.1/DTD/svg11.dtd"><svg t="1496802345205" class="icon" style="" viewBox="0 0 1024 1024" version="1.1" xmlns="http://www.w3.org/2000/svg" p-id="2225" xmlns:xlink="http://www.w3.org/1999/xlink" width="200" height="200"><defs><style type="text/css"></style></defs><path d="M512 0C229.218 0 0 229.218 0 512s229.218 512 512 512 512-229.218 512-512S794.782 0 512 0zM512 944c-238.594 0-432-193.406-432-432S273.406 80 512 80s432 193.406 432 432S750.594 944 512 944z" p-id="2226"></path><path d="M480 704l64 0 0 64-64 0 0-64Z" p-id="2227"></path><path d="M635.468 300.296c-12.968-13.25-29.376-23.844-49.532-32.062-20.406-8.204-44.344-12.234-72.562-12.234-23.938 0-45.75 4.032-65.562 12.234-19.876 8.218-37 19.546-51.376 34.25-14.25 14.578-25.344 29.016-33 49.546C355.812 372.562 352 384 352 416l65.312 0c0-32 8.468-56.218 25.876-77.032 17.188-20.906 40.532-29.64 70.188-29.64 28.876 0 50.468 7.828 64.344 21.876 13.75 14.046 20.782 34.172 20.782 59.594 0 19.766-6.5 37.516-19.468 52.984-12.75 15.5-26.718 30.594-41.688 44.876-15.188 14.282-27.344 29.532-39.906 45.282S480 568.032 480 588.938L480 640l64 0 0-27.5c0-16.406 2.406-30.624 8.812-43.032 6.188-12.438 13.906-23.718 23.688-33.782 9.468-10.188 19.624-20 30.938-29.656 11-9.532 21.562-19.718 31.062-30.344 9.688-10.688 17.75-22.688 23.876-35.938 6.438-13.25 9.656-28.812 9.656-46.954 0-15.75-2.844-31.782-8.782-48.078C657.438 328.296 648.062 313.532 635.468 300.296z" p-id="2228"></path></svg>