<?xml version="1.0" standalone="no"?><!DOCTYPE svg PUBLIC "-//W3C//DTD SVG 1.1//EN" "http://www.w3.org/Graphics/SVG/1.1/DTD/svg11.dtd"><svg t="1497865012193" class="icon" style="" viewBox="0 0 1024 1024" version="1.1" xmlns="http://www.w3.org/2000/svg" p-id="2617" xmlns:xlink="http://www.w3.org/1999/xlink" width="200" height="200"><defs><style type="text/css"></style></defs><path d="M512.557 169.6l0.448-0.512c21.312-20.48 43.84-39.68 67.968-56.768a381.632 381.632 0 0 1 55.936-33.536c7.04-3.2 14.08-6.4 21.312-8.96a204.928 204.928 0 0 1 51.008-12.16h11.648c3.008 0 6.016 0 8.96 0.64 6.4 0.64 12.8 1.92 19.008 3.84 5.12 1.92 10.24 3.84 15.36 6.4 3.2 1.92 5.76 3.84 8.96 5.76 5.12 3.84 9.6 7.68 13.44 12.16 3.2 4.48 7.04 8.32 9.6 12.8 6.4 10.24 11.52 21.12 15.36 32 1.28 3.2 1.92 6.4 3.2 10.24 1.28 4.48 1.92 8.96 3.2 13.44 1.28 5.76 1.92 11.52 3.2 17.28l1.92 21.76c0.64 8.96 0.64 18.56 0.64 28.16 0 12.16-0.64 24.32-1.92 36.48-1.92 15.36-3.84 30.08-6.4 44.8-1.92 8.96-3.2 17.92-5.12 26.88l-3.84 15.36 8.32 2.56c15.36 4.48 30.08 9.6 45.44 15.36 11.52 4.48 23.68 9.6 35.2 15.36 10.24 5.12 20.48 10.24 30.08 16 10.88 6.4 21.12 12.8 30.72 20.48 8.32 6.4 16.64 13.44 24.32 20.48 5.76 5.76 10.88 11.52 16 17.92 3.84 5.12 7.68 10.88 10.88 16.64 4.48 8.32 7.68 16.64 10.24 25.6 1.28 5.12 1.92 10.88 1.92 16.64 0 3.2 0 7.04-0.64 10.88-0.64 5.76-1.92 12.16-3.84 17.92-1.28 5.76-3.84 10.88-6.4 16-5.76 10.88-12.8 21.12-21.12 30.72-2.56 3.2-5.12 5.76-7.68 8.32-3.84 3.84-7.04 7.04-10.88 10.24-4.48 3.84-9.6 8.32-14.72 11.52-6.4 5.12-12.8 9.6-19.2 13.44-8.32 5.76-17.28 10.88-26.24 15.36-11.52 5.76-22.4 11.52-33.92 16.64a576 576 0 0 1-35.2 14.08c-10.24 3.84-20.48 7.04-30.72 10.24l-3.2 1.28c1.28 5.12 2.56 10.24 3.2 15.36 1.28 7.68 3.2 15.36 4.48 23.04 2.56 15.36 5.12 31.36 6.4 46.72 0.64 12.16 1.28 24.32 1.28 35.84a396.288 396.288 0 0 1-3.84 50.56c-1.28 5.76-1.92 12.16-3.2 17.92l-3.84 14.08c-2.56 7.68-5.76 16-8.96 23.68-3.2 5.76-6.4 12.16-10.24 17.92-3.84 5.76-8.32 10.88-13.44 16-5.76 5.76-12.16 10.24-18.56 14.08-5.12 2.56-10.88 5.12-16 6.4-8.96 2.56-17.92 3.84-26.88 4.352-12.16 0.384-24.32-1.28-36.48-3.84a175.36 175.36 0 0 1-21.76-6.4c-8.32-2.56-16-6.016-23.68-9.6-9.6-4.224-18.56-8.96-27.52-14.08-10.24-5.76-20.48-12.16-30.08-19.2-24.96-17.28-48.64-37.12-70.4-58.24l-5.12 4.48c-10.24 9.6-20.48 18.56-30.72 27.52-10.88 8.32-21.76 16.64-33.28 24.96-10.24 7.04-20.48 13.44-31.36 19.84-10.24 5.76-21.12 10.88-31.36 15.36-7.68 3.2-15.36 6.4-23.04 8.96-7.68 2.304-14.72 4.48-22.4 5.76-12.16 2.56-23.68 3.84-35.84 3.584-9.6 0-19.2-1.28-28.16-4.48a61.44 61.44 0 0 1-16.64-7.04c-3.84-1.92-7.04-4.48-10.24-7.04a57.728 57.728 0 0 1-6.4-5.76 14.976 14.976 0 0 1-4.48-4.48 110.08 110.08 0 0 1-21.12-32.64l-1.92-5.76c-0.64-2.56-1.92-5.12-2.56-7.04-1.28-3.2-1.92-7.04-3.2-10.24-1.28-4.48-1.92-8.32-3.2-12.8-1.28-5.76-2.56-11.136-3.2-16.832-0.64-7.04-1.92-14.72-1.92-21.76-0.64-9.6-0.64-18.56-0.64-28.16 0-12.16 0.64-24.32 1.92-35.84 1.28-15.36 3.84-30.08 6.4-45.44l7.68-36.48-12.8-3.84a608.64 608.64 0 0 1-44.8-16 309.76 309.76 0 0 1-30.08-13.44c-8.96-4.48-17.92-8.96-26.88-14.72a288.96 288.96 0 0 1-57.472-42.24C35.95 588.8 30.19 582.4 25.07 576a156.16 156.16 0 0 1-12.16-18.048c-3.2-5.76-5.76-11.904-8.064-18.176-0.64-2.816-1.536-5.76-2.176-8.576a74.88 74.88 0 0 1-2.048-29.44c0.384-2.816 0.832-5.76 1.472-8.512L3.95 486.4c4.096-13.44 11.2-25.984 19.84-37.12a155.712 155.712 0 0 1 16.32-18.496l10.88-9.6c4.8-3.84 9.6-7.68 14.592-11.52 6.4-4.48 13.056-8.96 19.84-13.44 8.32-5.12 17.024-10.24 25.856-14.72 11.264-5.76 22.784-10.88 34.56-16 21.12-8.96 42.752-16 64.768-22.4l5.12-1.28c-3.2-13.44-6.4-26.88-8.96-40.32-2.56-14.08-5.12-28.8-6.4-43.52-1.28-11.52-1.92-23.04-2.56-35.2-0.64-8.96 0-18.56 0-28.16 0-7.04 0.64-14.08 1.92-21.12a160.768 160.768 0 0 1 5.76-30.72c0.64-3.2 1.92-7.04 3.2-10.24l2.56-6.4c0.64-1.92 1.28-3.84 2.56-5.76 5.12-11.52 11.52-23.04 20.48-32.64 1.92-1.92 3.84-3.84 6.4-5.76 1.92-1.92 3.84-3.2 5.76-5.12 2.56-1.92 5.76-3.84 8.96-5.76 5.12-2.56 10.24-5.12 16-6.4 6.4-1.92 12.8-3.2 19.2-3.84 1.92 0 3.84-0.64 5.76-0.64h9.6l7.04 0.64a259.06 259.06 0 0 1 30.72 5.76c6.4 1.92 13.44 3.84 19.84 6.4 7.04 2.56 13.44 5.76 20.48 8.96 10.24 5.12 19.84 10.24 29.44 16 10.24 6.4 20.48 12.8 30.72 19.84 11.52 8.32 23.04 17.28 34.56 26.88 8.96 7.68 17.28 15.36 26.24 23.04l5.76 5.76z m256.448 524.672a976.64 976.64 0 0 1-130.752 20.672c-2.56 0.64-5.12 0.64-7.68 1.28-11.52 17.28-24.32 34.56-37.12 50.56-13.44 17.92-27.52 35.2-42.24 51.2l-6.4 7.04c19.2 18.56 39.04 35.84 60.8 51.2 8.96 6.4 17.92 12.16 26.88 17.92 7.68 5.12 16 8.96 24.32 13.44 7.04 3.2 14.08 6.4 21.76 8.96 5.76 1.92 11.52 3.84 17.92 5.12 5.12 1.28 10.24 2.56 15.36 2.56 4.48 0.64 8.96 0.64 12.8 0.64 6.4 0 13.44-1.28 19.2-3.84l5.12-2.56a30.08 30.08 0 0 0 9.6-8.32c3.84-4.48 7.04-9.6 10.24-14.72 1.28-1.28 1.92-3.2 3.2-5.12l3.2-7.68c1.28-3.2 2.56-6.4 3.2-10.24 1.28-4.48 2.56-8.32 3.2-12.8 1.28-5.76 1.92-11.52 3.2-17.28 1.28-5.76 1.28-12.16 1.92-18.56 0.64-14.08 0.64-28.16-0.64-42.24-0.64-13.44-2.56-27.52-4.48-40.96-1.92-10.88-3.84-22.4-6.4-33.28l-2.56-10.88z m-511.552 1.92l-3.84 18.56a545.213 545.213 0 0 0-9.6 64.448c-1.28 14.336-1.28 28.8-1.28 43.136 0.64 5.76 0.64 12.16 1.28 18.56 0.64 5.76 1.92 10.88 2.56 16.64 0.64 3.84 1.92 8.32 2.56 12.16 1.28 3.2 1.92 6.4 3.2 9.6 1.28 2.56 1.92 5.12 3.2 7.68l3.2 5.76c0.64 1.28 1.28 2.56 2.56 3.84l1.92 3.2 1.92 2.56c3.84 5.12 7.68 9.6 13.44 12.8l3.84 1.92c3.2 1.28 5.76 2.56 8.96 3.2 4.48 0.64 8.32 1.28 12.8 1.28s8.96 0 12.8-0.64c5.12-0.64 10.24-1.92 15.36-2.56 6.4-1.28 12.16-3.2 17.92-5.12a274.816 274.816 0 0 0 47.36-22.4c9.6-5.76 19.2-12.16 28.8-18.56 9.6-7.04 19.2-14.08 28.16-21.76 5.76-4.48 10.88-8.96 16.64-14.08 4.48-4.48 9.6-8.32 14.08-12.8l1.92-1.92-10.88-12.16c-14.72-16.64-28.8-33.92-42.88-51.2a1196.8 1196.8 0 0 1-33.92-45.44h-3.84a1657.6 1657.6 0 0 1-58.88-6.4c-17.92-2.56-35.84-5.76-53.76-8.96l-21.12-4.48z m316.8 23.168a1476.608 1476.608 0 0 1-115.2 0.448l-6.4-0.192 13.44 16.768c12.8 15.744 25.6 31.104 39.04 46.08 3.2 3.648 6.4 7.296 10.24 10.88l5.12-5.76c13.44-15.168 26.24-30.912 39.04-47.04 5.12-6.4 10.88-13.44 16-21.12z m32-368.768a1171.072 1171.072 0 0 0-90.24-3.52h-4.48c-9.6 0-18.56 0.128-28.16 0.384-21.12 0-42.24 1.28-63.36 2.56-12.16 17.92-23.68 35.84-35.2 54.4-12.8 21.12-24.96 42.88-36.48 64.64-7.04 13.44-14.08 27.52-21.12 41.6 7.68 15.36 15.36 30.72 23.68 45.44 12.16 22.4 24.96 44.16 37.76 65.92 10.88 16.64 21.76 33.92 32.64 49.92l38.4 1.92c18.56 0.64 36.48 0.64 55.04 0.64 31.36 0 62.72-1.28 93.44-3.2 10.88-16 21.12-32.64 31.36-48.64 22.4-37.12 43.52-74.88 62.08-113.92-6.4-13.44-12.8-26.24-19.84-39.04-8.96-17.28-18.56-33.92-28.16-49.92-13.44-23.04-27.52-46.08-42.88-68.48l-2.56-3.84z m-303.36 213.12c-4.48 11.52-9.6 23.424-14.08 35.2a890.831 890.831 0 0 0-19.2 55.04c10.88 2.56 22.4 4.608 33.28 6.528 16 2.816 32.64 5.12 48.64 7.168 4.48 0.64 8.96 1.088 13.44 1.536-7.04-11.072-14.08-22.272-20.48-33.536-14.08-23.552-27.52-47.616-40.32-72z m420.48-1.664c-6.4 12.608-13.44 24.96-19.84 37.44-7.68 13.824-15.36 27.52-23.68 41.216-5.12 9.6-10.88 18.56-16.64 28.16l9.6-1.28c16-1.92 32-4.48 47.36-7.04 12.8-1.92 26.24-4.48 39.04-7.68a559.36 559.36 0 0 0-18.56-51.84c-4.48-12.8-10.24-25.6-15.36-37.76z m-495.36-179.2l-14.08 4.224a498.944 498.944 0 0 0-72.96 28.672 407.04 407.04 0 0 0-28.16 15.36c-7.68 4.8-16 10.112-23.04 15.872-5.76 4.224-10.88 8.704-16 13.568-4.48 4.032-8.32 8.32-12.16 12.8-2.56 3.52-5.12 7.04-7.68 10.88-1.92 3.2-3.84 6.4-5.12 9.856a38.72 38.72 0 0 0-3.2 14.72v3.84c0 5.632 1.92 11.264 3.84 16.448l1.28 2.752 1.92 3.328 2.56 4.48 3.84 5.44 5.12 6.144c1.92 2.56 4.48 4.992 6.4 7.36 3.2 2.944 5.76 5.76 8.96 8.576 3.84 3.2 7.04 6.208 10.88 9.152 5.12 3.84 10.24 7.68 15.36 11.264 6.4 4.48 12.8 8.96 19.84 12.8 8.96 5.12 17.92 9.6 26.88 14.08 10.88 5.12 22.4 10.24 33.28 14.72 10.24 3.84 19.84 7.68 29.44 10.24l14.72 4.48 13.44-40.32c8.32-22.4 16.64-44.16 26.24-65.92l11.52-24.32-10.88-24.32c-9.6-21.76-18.56-44.8-26.88-67.2-4.48-12.16-8.96-24.96-12.8-37.76z m570.24 0.64a615.68 615.68 0 0 1-10.88 32.832 679.041 679.041 0 0 1-26.88 67.84l-12.16 27.2 15.36 33.28c9.6 20.8 17.92 41.856 25.6 63.168a330.576 330.576 0 0 1 11.52 33.28l7.68-2.304c8.96-2.56 17.28-5.12 25.6-8.32 17.28-5.76 33.92-12.8 49.92-21.12 10.24-4.48 19.84-10.24 28.8-16 8.32-4.48 16-10.24 23.68-16 5.76-3.84 10.88-8.32 16-13.44 4.48-3.84 8.96-8.96 12.8-13.44 3.2-3.2 5.76-7.04 8.32-10.88 1.92-3.2 3.84-6.4 5.12-9.6 2.56-4.48 3.84-9.6 3.84-15.36 0.64-1.28 0.64-2.56 0-4.48 0-3.2-0.64-7.04-1.92-10.24a42.432 42.432 0 0 0-5.76-12.16l-1.92-3.84-3.2-4.48c-1.28-1.92-3.2-3.84-4.48-5.76-1.92-1.92-3.84-4.48-6.4-7.04-2.56-2.56-5.76-5.12-8.32-7.68-3.84-3.2-7.68-6.4-12.16-9.6-4.48-3.84-9.6-7.04-14.08-10.24-6.4-4.48-12.8-8.32-19.84-12.16a332.16 332.16 0 0 0-26.24-12.8c-10.24-5.12-21.12-8.96-32-13.44-14.72-5.76-30.08-10.24-45.44-14.72zM512.11 419.84a91.52 91.52 0 1 1 0 183.104 91.52 91.52 0 0 1 0-183.104z m149.504-63.36c11.264 17.536 22.08 35.456 32.512 53.568 9.6 16.768 19.072 33.728 28.16 50.88 5.44-12.928 10.688-25.984 15.68-39.168 5.76-16.192 11.52-32.512 16.64-49.024a998.144 998.144 0 0 0-94.08-16.32z m-298.88-0.192a989.952 989.952 0 0 0-74.56 12.16c-5.76 1.152-12.16 2.432-17.92 3.84 5.76 17.6 11.52 35.072 17.92 52.288 4.48 12.16 9.6 24.32 14.72 36.288 11.52-21.76 23.68-44.16 36.48-65.28 8.32-12.8 16-26.24 24.32-39.04z m404.032-25.728l1.92-8.512c2.56-11.136 4.48-22.272 6.4-33.536 2.56-14.592 3.84-29.44 5.12-44.16 0.64-14.4 1.28-28.928 0.64-43.392-0.64-6.528-0.64-13.12-1.92-19.584-0.64-5.76-1.92-11.328-2.56-16.896-1.28-4.352-1.92-8.64-3.2-12.8-1.28-3.2-1.92-6.4-3.2-9.6l-1.856-7.424-2.368-4.992c-0.832-1.536-1.6-3.072-2.56-4.48a27.2 27.2 0 0 0-2.24-3.712c-0.64-0.832-1.152-1.728-1.728-2.56a42.816 42.816 0 0 0-18.56-15.36 46.528 46.528 0 0 0-14.72-3.2c-1.28 0-2.56 0-3.84-0.128h-1.28c-1.28 0-2.56 0-4.48 0.192-3.84 0-7.68 0.64-11.52 1.28-4.48 0.64-9.6 1.92-14.08 3.2l-17.28 5.76c-6.4 2.56-12.8 5.76-19.84 8.96-8.32 3.84-16 8.96-24.32 13.44-8.32 5.12-17.28 10.88-25.6 17.28-20.48 14.72-39.68 31.36-58.24 49.28l8.32 8.96c16.64 17.92 32 36.48 46.72 55.68 10.88 13.44 21.12 28.16 31.36 42.24l26.24 2.56c19.2 1.92 38.4 5.12 57.6 8.32 17.92 2.56 35.84 6.4 53.12 10.24zM482.03 200.768c-0.96-0.832-1.92-1.664-2.752-2.56a621.504 621.504 0 0 0-55.552-46.016c-9.6-6.528-18.56-12.672-28.16-18.432-8.32-4.992-17.28-9.6-25.6-13.888-6.4-3.008-12.8-5.76-19.2-8.32a242.368 242.368 0 0 0-17.92-5.76c-4.48-1.28-8.96-2.176-13.44-3.008-4.48-0.64-8.32-1.152-12.16-1.408l-4.48-0.128h-0.64c-1.28 0-2.56 0-3.84 0.128a53.504 53.504 0 0 0-24.32 6.912 36.8 36.8 0 0 0-9.6 8.64c-3.84 4.48-7.04 9.408-9.6 14.592l-2.56 5.376c-1.28 1.92-1.92 4.48-2.56 7.04-1.28 3.2-2.56 5.76-3.2 8.96-0.64 3.84-1.92 8.32-2.56 12.16-0.64 5.12-1.92 10.24-2.56 16-0.64 5.76-1.28 12.16-1.28 18.56-0.64 14.08 0 28.16 0.64 42.24 1.28 21.76 5.12 43.52 9.6 65.28 1.28 7.04 3.2 14.08 4.48 21.12 6.4-1.92 13.44-3.2 19.84-4.48 15.36-3.2 31.36-6.4 47.36-8.32 17.28-3.2 35.2-5.12 52.48-7.04l16-1.92c10.24-14.72 21.12-28.8 32-42.88 14.08-17.92 28.8-35.84 44.16-52.48l11.52-12.8zM512.621 232l-10.432 11.52a990.001 990.001 0 0 0-39.552 47.232l-10.88 14.08a1229.376 1229.376 0 0 1 54.4-1.472h7.424a1327.36 1327.36 0 0 1 59.264 1.408l-10.24-12.8c-13.44-17.408-27.52-34.432-42.24-50.816L512.11 232z" p-id="2618"></path></svg>