<svg xmlns="http://www.w3.org/2000/svg" width="20" height="20" viewBox="0 0 20 20">
    <path d="M3.334 18.643h13.332V4.66H3.334v13.982zM6.964 3.29h6.18V1.4H6.965V3.29zm7.48-2.193c0-.604-.5-1.097-1.11-1.097H6.666c-.611 0-1.11.493-1.11 1.097V3.29H.283A.285.285 0 0 0 0 3.574v.836c0 .158.129.285.29.285h1.674v14.208c0 .603.5 1.097 1.111 1.097h13.782c.612 0 1.112-.493 1.112-1.097V4.695h1.749A.285.285 0 0 0 20 4.41v-.836a.284.284 0 0 0-.283-.284h-5.273V1.097zm-8.888 14.37c0 .197.153.355.36.355h.708a.358.358 0 0 0 .256-.102.349.349 0 0 0 .104-.252V7.405a.348.348 0 0 0-.104-.253.357.357 0 0 0-.256-.102h-.708a.358.358 0 0 0-.256.102.349.349 0 0 0-.104.253v8.063zm4.96.355a.352.352 0 0 0 .357-.354V7.405a.36.36 0 0 0-.357-.355H9.8a.352.352 0 0 0-.357.355v8.063a.36.36 0 0 0 .357.355h.715zm2.818-.354c0 .196.152.354.36.354h.707a.358.358 0 0 0 .256-.102.349.349 0 0 0 .105-.252V7.405a.348.348 0 0 0-.104-.253.357.357 0 0 0-.257-.102h-.707a.358.358 0 0 0-.256.102.349.349 0 0 0-.104.253v8.063z"/>
</svg>
