<svg xmlns="http://www.w3.org/2000/svg" width="20" height="20" viewBox="0 0 20 20">
    <path d="M14.444 1.097V3.29h5.273a.284.284 0 0 1 .283.284v.836a.285.285 0 0 1-.282.285h-1.75v14.208c0 .604-.5 1.097-1.11 1.097H3.074a1.108 1.108 0 0 1-1.111-1.097V4.695H.29A.286.286 0 0 1 0 4.41v-.836c0-.155.125-.282.283-.284h5.273V1.097C5.556.493 6.055 0 6.666 0h6.668c.61 0 1.11.493 1.11 1.097zM3.334 18.643h13.332V4.66H3.334v13.982zM6.964 3.29h6.18V1.4H6.965V3.29zM5.556 15.468V7.405a.349.349 0 0 1 .104-.253.358.358 0 0 1 .256-.102h.708a.357.357 0 0 1 .256.102.348.348 0 0 1 .104.253v8.063a.349.349 0 0 1-.104.252.358.358 0 0 1-.256.102h-.708a.352.352 0 0 1-.36-.354zm4.96.354H9.8a.36.36 0 0 1-.357-.354V7.405c0-.203.16-.355.357-.355h.715a.36.36 0 0 1 .357.355v8.063c0 .202-.16.354-.357.354zm2.818-.354V7.405a.349.349 0 0 1 .104-.253.358.358 0 0 1 .256-.102h.707a.357.357 0 0 1 .257.102.348.348 0 0 1 .104.253v8.063a.349.349 0 0 1-.105.252.358.358 0 0 1-.256.102h-.707a.352.352 0 0 1-.36-.354z"/>
</svg>
