<?xml version="1.0" standalone="no"?><!DOCTYPE svg PUBLIC "-//W3C//DTD SVG 1.1//EN" "http://www.w3.org/Graphics/SVG/1.1/DTD/svg11.dtd"><svg t="1496802522514" class="icon" style="" viewBox="0 0 1024 1024" version="1.1" xmlns="http://www.w3.org/2000/svg" p-id="4260" xmlns:xlink="http://www.w3.org/1999/xlink" width="200" height="200"><defs><style type="text/css"></style></defs><path d="M512.170667 264.192a241.664 241.664 0 1 0 0 483.413333 241.664 241.664 0 0 0 0-483.413333z m0 436.309333a194.56 194.56 0 1 1 0-389.12 194.56 194.56 0 0 1 0 389.12z"></path><path d="M976.384 574.464a259.328 259.328 0 0 0-7.765333-4.096c-3.754667-1.877333-7.253333-3.669333-10.496-5.632a66.304 66.304 0 0 1-32.426667-48.213333 67.157333 67.157333 0 0 1 19.882667-55.210667c10.154667-10.24 22.784-16.896 36.181333-23.893333l2.816-1.365334c27.818667-14.506667 41.642667-37.546667 38.997333-65.024-4.266667-43.946667-16.128-79.872-36.096-109.824-18.688-27.989333-38.314667-40.533333-63.488-40.533333-10.24 0-21.504 2.048-34.56 6.314667a221.866667 221.866667 0 0 1-30.464 8.021333 62.378667 62.378667 0 0 1-10.496 0.853333c-29.184 0-56.32-20.48-63.146666-47.616-3.925333-15.872-2.048-32.938667 5.632-52.309333 11.946667-29.866667 5.12-57.173333-19.968-81.493333-12.8-12.458667-30.549333-27.818667-53.248-35.84-29.013333-10.496-52.48-17.408-72.106667-17.408-31.573333 0-53.162667 17.066667-76.714667 61.013333a61.952 61.952 0 0 1-55.808 33.962667 72.96 72.96 0 0 1-60.16-33.28C449.792 58.197333 447.146667 53.077333 444.416 47.786667c-2.218667-4.266667-4.522667-8.789333-7.168-13.141334-13.397333-22.186667-32.938667-33.877333-56.32-33.877333a75.776 75.776 0 0 0-9.045333 0.597333c-24.149333 2.901333-52.138667 7.509333-77.397334 19.797334-70.997333 34.304-77.909333 64.426667-66.56 118.869333 9.984 47.530667-7.424 81.322667-46.506666 90.368a76.544 76.544 0 0 1-17.408 1.877333c-11.690667 0-24.234667-2.218667-40.533334-7.338666a84.309333 84.309333 0 0 0-25.002666-4.096c-21.333333 0-39.936 9.642667-55.296 28.672-16.554667 20.565333-28.16 44.885333-36.608 76.629333C-9.386667 386.56 4.266667 418.218667 58.88 447.061333c21.504 11.349333 35.84 27.648 40.106667 45.738667a57.173333 57.173333 0 0 1-10.666667 46.933333c-10.24 14.506667-24.746667 25.770667-44.202667 34.133334-27.306667 11.946667-42.154667 33.450667-42.752 62.378666-1.194667 52.906667 16.128 98.816 51.370667 136.533334a65.024 65.024 0 0 0 49.408 20.992c4.437333 0 9.130667-0.341333 13.909333-1.109334 5.376-0.853333 10.666667-1.962667 15.786667-3.157333 9.045333-1.962667 17.493333-3.754667 25.6-3.754667a46.08 46.08 0 0 1 6.144 0.341334l1.194667 0.170666 1.109333-0.170666a62.122667 62.122667 0 0 1 8.106667-0.512c17.322667 0 32.682667 7.936 42.154666 21.845333 9.813333 14.506667 11.776 33.28 5.034667 50.346667a114.944 114.944 0 0 0-3.754667 11.690666c-0.853333 3.072-1.621333 5.973333-2.56 8.533334-11.434667 31.829333-4.778667 59.221333 19.626667 81.749333 24.746667 22.613333 55.722667 38.4 94.72 48.298667 19.029333 4.864 32.768 6.997333 44.544 6.997333 35.072 0 53.76-20.309333 75.690667-57.856 15.872-26.965333 36.010667-40.106667 61.610666-40.106667h0.938667c25.685333 0.341333 44.8 12.970667 60.16 39.68 1.706667 2.986667 3.328 5.973333 4.949333 9.301334 2.304 4.437333 4.693333 9.130667 7.594667 13.653333 14.677333 23.296 35.157333 35.157333 60.757333 35.157333 4.266667 0 8.789333-0.341333 13.312-1.024a238.677333 238.677333 0 0 0 97.109334-36.096c38.570667-25.088 50.517333-59.989333 34.389333-100.949333-9.813333-24.917333-8.277333-50.602667 4.010667-68.608 10.496-15.36 27.648-23.552 49.664-23.552 4.864 0 10.069333 0.426667 15.36 1.28l4.608 0.597333c6.144 0.938667 12.032 1.792 17.834666 3.072 11.434667 2.56 21.589333 3.84 31.061334 3.84 33.28 0 57.856-15.36 79.530666-49.749333 15.530667-24.746667 24.832-52.48 28.416-85.162667 4.096-37.205333-10.752-65.450667-44.288-84.053333z m-231.338667 305.834667c12.629333 41.130667 9.557333 48.896-27.306666 69.12a165.717333 165.717333 0 0 1-30.549334 13.397333c-17.92 5.546667-30.208 8.789333-39.850666 8.789333-13.568 0-23.210667-5.802667-38.4-37.546666-18.773333-39.253333-53.674667-60.928-98.133334-60.928H510.293333c-41.216 0.170667-74.752 21.504-99.754666 63.573333-17.237333 29.013333-22.186667 35.242667-36.010667 35.242667-7.338667 0-17.066667-1.792-31.402667-4.864a172.117333 172.117333 0 0 1-77.397333-38.4c-13.653333-11.776-16.469333-22.784-9.813333-38.058667 8.533333-19.882667 16.64-43.776 10.837333-71.168-10.154667-48.384-45.653333-78.506667-92.757333-78.506667-5.290667 0-10.752 0.426667-16.213334 1.194667a1083.733333 1083.733333 0 0 0-25.770666 3.84c-12.032 1.962667-20.309333 2.901333-26.965334 2.901333-19.114667 0-26.965333-6.997333-42.154666-37.290666a188.501333 188.501333 0 0 1-14.506667-39.765334c-5.461333-22.613333-6.144-32.768-2.816-40.106666 3.669333-8.362667 14.08-15.36 32-25.429334 58.88-33.28 82.176-94.378667 55.296-145.322666a128 128 0 0 0-64-58.026667c-19.626667-8.533333-27.306667-22.101333-24.832-43.776 3.328-30.293333 13.909333-57.173333 31.402667-79.786667 8.192-10.581333 16.042667-15.274667 25.6-15.274666 3.584 0 7.68 0.682667 12.117333 2.133333 17.066667 5.376 33.877333 10.24 51.541333 10.24 5.12 0 10.069333-0.426667 14.762667-1.194667 36.522667-6.314667 61.44-21.077333 76.288-45.226666 12.458667-20.138667 17.834667-46.08 17.408-84.138667a17.408 17.408 0 0 0-1.024-5.12l-0.170667-0.768c-8.704-51.114667-2.645333-61.696 45.994667-80.64 9.472-3.754667 18.858667-6.741333 27.818667-8.96 14.336-3.413333 25.088-5.973333 32.512-5.973333 11.434667 0 16.042667 6.058667 32.426666 34.218666 23.552 40.533333 56.832 61.013333 99.157334 61.013334h1.792c43.008-0.597333 77.653333-22.186667 100.266666-62.549334 14.762667-26.282667 20.650667-32 33.28-32 7.168 0 16.64 1.962667 28.757334 4.778667 19.882667 4.778667 34.56 11.008 46.336 19.626667 19.626667 14.250667 28.586667 23.637333 31.232 32.426666 2.474667 8.192-0.426667 17.749333-5.802667 33.792-11.52 34.730667-6.656 70.485333 13.312 98.133334 20.309333 28.330667 53.674667 44.458667 91.392 44.458666h0.853333a62.464 62.464 0 0 0 4.778667 0.170667c17.322667 0 36.437333-6.656 53.333333-12.629333a37.546667 37.546667 0 0 1 12.288-2.389334c7.765333 0 14.250667 3.413333 20.48 10.837334 22.698667 27.306667 34.816 60.416 36.778667 100.949333 0.682667 13.738667-8.874667 19.370667-24.576 27.477333l-0.170667 0.085334c-25.770667 13.312-61.013333 36.437333-69.973333 83.712-9.557333 50.346667 11.434667 96.085333 53.504 116.565333 48.128 23.296 46.250667 37.717333 31.317333 89.173333a115.285333 115.285333 0 0 1-22.613333 39.765334c-10.069333 12.458667-21.333333 18.517333-34.56 18.517333a53.418667 53.418667 0 0 1-14.933333-2.304 181.930667 181.930667 0 0 0-51.285334-8.106667 131.413333 131.413333 0 0 0-22.186666 1.877334c-29.184 4.949333-53.589333 21.248-68.608 45.738666-16.213333 26.453333-19.797333 60.074667-9.813334 92.501334z"></path></svg>