<?xml version="1.0" standalone="no"?><!DOCTYPE svg PUBLIC "-//W3C//DTD SVG 1.1//EN" "http://www.w3.org/Graphics/SVG/1.1/DTD/svg11.dtd"><svg t="1496802434230" class="icon" style="" viewBox="0 0 1024 1024" version="1.1" xmlns="http://www.w3.org/2000/svg" p-id="2900" xmlns:xlink="http://www.w3.org/1999/xlink" width="200" height="200"><defs><style type="text/css"></style></defs><path d="M511.996387 9.862132c-277.328216 0-502.134255 224.813265-502.134255 502.137868 0 277.328216 224.80604 502.137868 502.134255 502.137868 277.320991 0 502.137868-224.809652 502.137868-502.137868C1014.137868 234.675397 789.320991 9.862132 511.996387 9.862132L511.996387 9.862132zM824.889692 388.748635l-351.388132 338.834686c-4.670966 4.663741-9.952445 8.337656-15.587949 11.028971-22.065166 15.761349-52.915939 13.75641-72.730516-6.061779l-150.897848-150.897848c-22.065166-22.065166-22.065166-57.832555 0-79.883271 22.054329-22.065166 57.821717-22.065166 79.886884 0l113.291695 113.28447 317.531758-306.192112c22.061554-22.061554 57.832555-22.061554 79.883271 0C846.954858 330.919692 846.954858 366.687081 824.889692 388.748635L824.889692 388.748635zM824.889692 388.748635" p-id="2901"></path></svg>