<?xml version="1.0" standalone="no"?><!DOCTYPE svg PUBLIC "-//W3C//DTD SVG 1.1//EN" "http://www.w3.org/Graphics/SVG/1.1/DTD/svg11.dtd"><svg t="1497864958827" class="icon" style="" viewBox="0 0 1024 1024" version="1.1" xmlns="http://www.w3.org/2000/svg" p-id="2377" xmlns:xlink="http://www.w3.org/1999/xlink" width="200" height="200"><defs><style type="text/css"></style></defs><path d="M511.5973 0.292341c-373.466029 0-511.5973 326.691419-511.5973 509.916338 0 183.224919 132.796042 513.278262 500.780671 513.278262 0 0 91.429746 1.607877 91.429746-80.905459s-41.073955-56.129532-41.073954-115.474819c0-59.491457 41.073955-85.802176 60.806993-85.802176 19.733039 0 149.751838 9.866519 222.179399-18.271332C906.331159 695.187645 1023.1946 606.09663 1023.1946 454.225317c0-133.673066-138.131271-453.85989-511.5973-453.85989z m-311.855097 511.5973a88.944845 88.944845 0 0 1-88.87176-89.091015 88.944845 88.944845 0 0 1 177.670434 0 89.091016 89.091016 0 0 1-88.798674 89.1641z m167.511573-220.498436a88.944845 88.944845 0 0 1-88.87176-89.164101c0-49.259511 39.758419-89.164101 88.87176-89.164101 48.96717 0 88.87176 39.904589 88.871759 89.164101 0 49.259511-39.758419 89.164101-88.871759 89.164101z m284.886611 0c-48.96717 0-88.798674-39.904589-88.798675-89.164101 0-49.259511 39.758419-89.164101 88.798675-89.164101 48.96717 0 88.87176 39.904589 88.871759 89.164101 0 49.259511-39.758419 89.164101-88.871759 89.164101z m169.11945 220.571521c-48.96717 0-88.798674-39.904589-88.798674-89.1641 0-49.259511 39.758419-89.164101 88.798674-89.164101 49.113341 0 88.87176 39.904589 88.871759 89.164101a88.87176 88.87176 0 0 1-88.871759 89.1641z" p-id="2378"></path></svg>