<svg xmlns="http://www.w3.org/2000/svg" width="21" height="15" viewBox="0 0 21 15">
    <g>
        <path d="M10.5 13.8c3.117 0 6.03-1.9 8.763-5.844a.8.8 0 0 0 0-.912C16.53 3.1 13.617 1.2 10.5 1.2S4.47 3.1 1.737 7.044a.8.8 0 0 0 0 .912C4.47 11.9 7.383 13.8 10.5 13.8zm0 1.2C6.94 15 3.69 12.88.75 8.64a2 2 0 0 1 0-2.28C3.69 2.12 6.94 0 10.5 0c3.56 0 6.81 2.12 9.75 6.36a2 2 0 0 1 0 2.28C17.31 12.88 14.06 15 10.5 15z"/>
        <path d="M10.5 9.8a2.3 2.3 0 1 0 0-4.6 2.3 2.3 0 0 0 0 4.6zm0 1.2a3.5 3.5 0 1 1 0-7 3.5 3.5 0 0 1 0 7z"/>
    </g>
</svg>
