<?xml version="1.0" standalone="no"?><!DOCTYPE svg PUBLIC "-//W3C//DTD SVG 1.1//EN" "http://www.w3.org/Graphics/SVG/1.1/DTD/svg11.dtd"><svg t="1496802371391" class="icon" style="" viewBox="0 0 1024 1024" version="1.1" xmlns="http://www.w3.org/2000/svg" p-id="2678" xmlns:xlink="http://www.w3.org/1999/xlink" width="200" height="200"><defs><style type="text/css"></style></defs><path d="M511.999 0C228.937 0 0 228.937 0 511.999c0 283.064 228.937 511.999 511.999 511.999 283.064 0 511.999-228.934 511.999-511.999C1023.997 228.937 795.063 0 511.999 0zM511.999 804.568c-40.227 0-73.142-32.915-73.142-73.14 0-40.23 32.915-73.145 73.142-73.145 40.23 0 73.145 32.915 73.145 73.145C585.144 771.653 552.229 804.568 511.999 804.568zM585.144 511.999c0 40.23-32.915 73.145-73.145 73.145-40.227 0-73.142-32.915-73.142-73.145L438.857 292.572c0-40.23 32.915-73.145 73.142-73.145 40.23 0 73.145 32.915 73.145 73.145L585.144 511.999z" p-id="2679"></path></svg>